<svg xmlns="http://www.w3.org/2000/svg" viewBox="0 0 503.254 503.254"><path d="M268.693 379.52L388.16 260.054 268.693 140.587 149.227 260.054 268.693 379.52zm204.8-267.946L436.8 148.267c-12.8 12.8-12.8 34.133 0 46.933l36.693 36.693L215.787 489.6c-12.8 12.8-32.427 12.8-42.667 2.56L40.853 359.893c-16.213-16.213-12.8-41.813 0-54.613L330.987 13.44c12.8-12.8 32.427-12.8 45.227 0l97.279 98.134z" fill="#ecf4f7"/><path d="M473.493 111.574v120.32L436.8 195.2c-12.8-12.8-12.8-34.133 0-46.933l36.693-36.693z" fill="#aab1ba"/><path fill="#ffd0a1" d="M388.16 260.054L268.693 379.52 149.227 260.054l119.466-119.467z"/><path d="M191.893 503.254c-8.533 0-16.213-2.56-22.187-8.533L37.44 362.454c-7.68-7.68-11.947-18.773-11.947-29.867 0-11.947 4.267-23.04 11.947-30.72L327.573 10.88c14.507-14.507 36.693-14.507 51.2 0l98.133 97.28c.853.853.853 1.707.853 3.413v72.533c0 2.56-1.707 4.267-4.267 4.267s-4.267-1.707-4.267-4.267V113.28L372.8 16.854c-11.093-11.093-27.307-11.093-39.253 0L43.413 307.84c-5.973 5.973-9.387 15.36-9.387 24.747s3.413 17.92 9.387 23.893L175.68 488.747c8.533 8.533 24.747 9.387 36.693-2.56L467.52 231.894l-33.28-33.28c-6.827-6.827-11.093-16.213-11.093-26.453 0-10.24 4.267-19.627 11.093-26.453l6.827-6.827c1.707-1.707 4.267-1.707 5.973 0 1.707 1.707 1.707 4.267 0 5.973l-6.827 6.827c-5.12 5.12-8.533 12.8-8.533 20.48s3.413 15.36 8.533 20.48l36.693 36.693c.853.853.853 1.707.853 3.413 0 1.707-.853 2.56-.853 3.413L219.2 493.867c-7.68 5.973-17.92 9.387-27.307 9.387zm76.8-120.321c-.853 0-2.56 0-3.413-.853L145.813 262.613c-.853-.853-.853-1.707-.853-3.413 0-.853.853-2.56.853-3.413L265.28 136.32c1.707-1.707 4.267-1.707 5.973 0L390.72 255.787c.853.853.853 1.707.853 3.413 0 .853-.853 2.56-.853 3.413L271.253 382.08s-1.706.853-2.56.853zM155.2 259.2l113.493 113.493L382.187 259.2 268.694 145.707 155.2 259.2zm113.493 56.32c-6.827 0-12.8-5.973-12.8-12.8 0-6.827 5.973-12.8 12.8-12.8s12.8 5.973 12.8 12.8c0 6.827-5.973 12.8-12.8 12.8zm0-17.066c-2.56 0-4.267 1.707-4.267 4.267 0 2.56 1.707 4.267 4.267 4.267s4.267-1.707 4.267-4.267c0-2.561-1.707-4.267-4.267-4.267zm42.667-21.334c-6.827 0-12.8-5.973-12.8-12.8s5.973-12.8 12.8-12.8 12.8 5.973 12.8 12.8c0 7.68-5.973 12.8-12.8 12.8zm0-16.213c-2.56 0-4.267 1.707-4.267 4.267s1.707 4.267 4.267 4.267 4.267-1.707 4.267-4.267-1.707-4.267-4.267-4.267zm-85.333 11.947c-6.827 0-12.8-5.973-12.8-12.8s5.973-12.8 12.8-12.8c6.827 0 12.8 5.973 12.8 12.8s-5.974 12.8-12.8 12.8zm0-17.067c-2.56 0-4.267 1.707-4.267 4.267s1.707 4.267 4.267 4.267 4.267-1.707 4.267-4.267-1.707-4.267-4.267-4.267zm42.666-25.6c-6.827 0-12.8-5.973-12.8-12.8 0-6.827 5.973-12.8 12.8-12.8s12.8 5.973 12.8 12.8c0 6.826-5.973 12.8-12.8 12.8zm0-17.067c-2.56 0-4.267 1.707-4.267 4.267 0 2.56 1.707 4.267 4.267 4.267s4.267-1.707 4.267-4.267c0-2.56-1.707-4.267-4.267-4.267z" fill="#51565f"/></svg>