<svg xmlns="http://www.w3.org/2000/svg" viewBox="0 0 508.4 508.4"><path d="M227.4 6.4h-44.8C144.2 6.4 113 37.6 113 76c0 6 .8 12.4 2.4 18.4V96c-.4.4-.8.8-1.2.8-40.4 11.2-68.8 48-68.8 90 0 15.2 4 30.4 11.2 44 15.6-13.6 15.2-9.2 0 5.6C40.2 252 30.2 273.6 30.2 298c0 39.6 26.8 72.8 63.6 82.4 6.8 2 13.6 2.8 21.6 2.8 0 0 2 .8 2 2s-.8 2-2 2c-6.8 0-13.2-.8-19.6-2.4-1.6 5.2-2.4 10.8-2.4 16.4 0 31.6 25.6 57.6 57.6 57.6 5.2 0 10-.8 15.2-2 .8 0 1.2 0 1.6.4.4.4.8 1.2.8 1.6s0 .8-.4 1.2v.8c0 22.8 18.4 41.6 41.2 41.6s40.8-18.4 40.8-41.6V30c0-13.2-10-23.6-22.8-23.6z" fill="#bcaaa4"/><g fill="#ffcdd2"><path d="M96.2 383.2c0 .8-.4 1.2-.4 2 6.4 1.6 12.8 2.4 19.6 2.4 1.2 0 2-.8 2-2s-2-2-2-2v2c-8-.4-12.8-1.2-19.2-2.4zM115.4 210.8v2s2-.8 2-2-.8-2-2-2c-22.4 0-42.8 8.4-58.8 22 .4.4.4 1.2.8 1.6 15.6-13.2 34-21.6 58-21.6z"/><path d="M93.8 380.8H95c.8.4 1.6 1.2 1.2 2.4 6 1.2 11.2 2 19.2 2v-2c-8 0-14.8-1.2-21.6-2.8v.4zM57.8 232.8c.8 1.2.4 2.4-.4 3.2H57v.4c15.2-14.4 34.8-23.6 58.8-23.6v-2c-24.4 0-42.8 8.4-58 22zM451.4 236l-.4-.4v.4h.4z"/></g><path d="M412.2 380.8h1.2c37.2-9.2 64.8-42.8 64.8-82.8 0-23.6-9.6-46-26.8-62H450.2c-.4-.4-.8-.4-.8-.8-.4-.4-.4-1.2 0-2 8.4-14.4 12.8-30.4 12.8-46 0-42-28-79.2-68.4-90-.4 0-.8-.4-1.2-.8s-.4-1.2 0-1.6c2-6.4 2.8-12.8 2.8-18.4 0-38.4-31.2-69.6-69.2-69.6h-46.4c-13.6 0-24.8 10.8-24.8 24v430.8c.4.4.8.8.8 1.6 0 22.4 19.2 40.8 42.8 40.8 22.4 0 41.6-19.6 41.6-42.8V460v-1.2c0-.8.4-1.2.8-1.6.4-.4 1.2-.4 1.6-.4 5.2 1.6 10.4 2 15.2 2 31.6 0 57.2-26 57.2-57.6 0-4.8-.8-10-2.8-16-.4 0 0-4.4 0-4.4z" fill="#e0e0e0"/><g fill="#ffcdd2"><path d="M250.2 462.8v2h1.2v-.4c-.8-.4-1.2-.8-1.2-1.6zM409 381.6l-13.2-4-2 5.6c5.2 0 10.4-.4 15.2-1.6z"/><path d="M393.8 383.2h-.8c-1.2 0-2 .8-2 2s.8 2 2 2c6.4 0 12.8-.8 18.8-2 0-.8-.4-1.2-.4-2-6 1.2-12 2-18.4 2l.8-2z"/><path d="M393.8 383.2l-.8 2c6.4 0 12.4-.8 18.4-2v-.8l-2-.4c-5.2.8-10.4 1.2-15.6 1.2z"/></g><path d="M115.4 389.2c-50.4 0-91.2-40.8-91.2-91.2 0-50.4 40.8-91.2 91.2-91.2 2.4 0 4 1.6 4 4s-1.6 4-4 4c-46 0-83.2 37.2-83.2 83.2s37.2 83.2 83.2 83.2c2.4 0 4 1.6 4 4s-1.6 4-4 4z"/><path d="M209.4 508.4c-25.2 0-45.6-19.6-47.2-44.8-4 .8-7.6 1.2-11.6 1.2-34.8 0-63.6-28.4-63.6-63.6 0-6.8 1.2-13.2 3.2-20 .8-2 2.8-3.2 5.2-2.4 2 .8 3.2 2.8 2.4 5.2-2 5.6-2.8 11.6-2.8 17.2 0 30.8 24.8 55.6 55.6 55.6 4.8 0 9.6-.8 14.8-2 1.2-.4 2.4 0 3.6.8 1.2.8 1.6 2 1.6 3.2 0 .4 0 1.2-.4 1.6 0 22 17.6 40 39.2 40s38.8-17.6 38.8-39.6V30c0-12.4-8.8-21.6-20.8-21.6h-44.8C145.4 8.4 115 38.8 115 76c0 6 .8 12 2.4 18 .4 1.2 0 2-.4 3.2-.4.8-1.2 1.6-2.4 2-39.6 10.8-67.2 47.2-67.2 88 0 16 4 31.6 12 45.2 1.2 2 .4 4.4-1.6 5.6s-4.4.4-5.6-1.6c-8.4-14.8-12.8-32-12.8-49.2 0-43.6 28.4-82 69.6-94.8-1.2-5.6-2-10.8-2-16.4C107 34.4 141 .4 182.6.4h44.8c16 0 28.8 13.2 28.8 29.6v430.8c-.4 26.8-20.8 47.6-46.8 47.6zM393 389.2c-2.4 0-4-1.6-4-4s1.6-4 4-4c46 0 83.2-37.2 83.2-83.2S439 214.8 393 214.8c-2.4 0-4-1.6-4-4s1.6-4 4-4c50.4 0 91.2 40.8 91.2 91.2s-40.8 91.2-91.2 91.2z"/><path d="M297.8 508.4c-26.8 0-49.6-22-49.6-47.6 0-2.4 1.6-4 4-4s4 1.6 4 4c0 21.6 19.2 39.6 41.6 39.6 22 0 39.6-17.6 39.6-39.6v-2c0-1.2.4-2.4 1.6-3.2 1.2-.8 2.4-1.2 3.6-.8 4.8 1.2 10 2 14.8 2 30.8 0 55.6-24.8 55.6-55.6 0-6-.8-12-2.8-17.6-.8-2 .4-4.4 2.4-5.2 2-.8 4.4.4 5.2 2.4 2 6.4 3.2 13.2 3.2 20 0 35.2-28.4 63.6-63.6 63.6-4 0-8-.4-12-1.2-1.6 25.2-22.4 45.2-47.6 45.2zM452.2 238c-.8 0-1.2 0-2-.4-2-1.2-2.4-3.6-1.6-5.6 8-13.6 12-29.2 12-45.2 0-41.2-27.6-77.2-67.2-88-1.2-.4-2-.8-2.4-2s-.8-2-.4-3.2c1.6-6 2.4-12 2.4-18C393 38.4 362.6 8 325.4 8h-45.6c-12.8 0-23.6 10-23.6 21.6 0 2.4-1.6 4-4 4s-4-1.6-4-4c0-16 14.8-29.6 31.6-29.6h45.6C367 0 401 34 401 75.6c0 5.2-.8 10.8-2 16.4 41.2 12.8 69.6 51.2 69.6 94.8 0 17.2-4.4 34.4-12.8 49.2-.8 1.2-2.4 2-3.6 2z"/><path d="M377.4 163.6c-1.2 0-2-.4-2.8-1.2-1.6-1.6-1.6-4 0-5.6 14-14 14-36.4 0-50.4s-36.4-14-50.4 0c-1.6 1.6-4 1.6-5.6 0s-1.6-4 0-5.6c17.2-17.2 44.8-17.2 61.6 0 17.2 17.2 17.2 44.8 0 61.6-.8.8-1.6 1.2-2.8 1.2zM151 350.4c-1.2 0-2-.4-2.8-1.2-17.2-17.2-17.2-44.8 0-61.6 17.2-17.2 44.8-17.2 61.6 0 1.6 1.6 1.6 4 0 5.6s-4 1.6-5.6 0c-14-14-36.4-14-50.4 0s-14 36.4 0 50.4c1.6 1.6 1.6 4 0 5.6-.8.8-2 1.2-2.8 1.2zM293.8 421.2c-25.2 0-45.6-18.8-45.6-42 0-2.4 1.6-4 4-4s4 1.6 4 4c0 18.8 16.8 34 37.6 34 19.6 0 35.6-16 35.6-35.6 0-2.4 1.6-4 4-4s4 1.6 4 4c0 24-19.6 43.6-43.6 43.6zM210.6 151.6c-24 0-43.6-19.6-43.6-43.6 0-2.4 1.6-4 4-4s4 1.6 4 4c0 19.6 16 35.6 35.6 35.6 20 0 37.6-16.8 37.6-36 0-2.4 1.6-4 4-4s4 1.6 4 4c0 24-20.8 44-45.6 44z"/></svg>