<svg xmlns="http://www.w3.org/2000/svg" viewBox="0 0 508 508"><path d="M34 424.4h1.2c-.4.4-.8.4-1.2 0z" fill="#ffcdd2"/><path d="M472 422h6.4c16 0 23.6-16 23.6-30.4V86.8c0-15.2-8.4-25.2-23.6-25.2H37.6C23.2 61.6 6 71.2 6 86.8v304.8C6 406.8 22.4 422 37.6 422H472z" fill="#e0e0e0"/><path d="M36 446.8v2h2c-1.2 0-2-.8-2-2z" fill="#ffcdd2"/><path fill="#bcaaa4" d="M38 426h428v20H38z"/><path d="M40 322.8v2h2c-1.2 0-2-.8-2-2z" fill="#ffcdd2"/><path d="M60 362.8c-7.6 0-14 6.4-14 14s6.4 14 14 14 14-6.4 14-14-6.4-14-14-14z" fill="#1976d2"/><path d="M116 362.8c-7.6 0-14 6.4-14 14s6.4 14 14 14 14-6.4 14-14-6.4-14-14-14z" fill="#eee"/><path d="M172 362.8c-7.6 0-14 6.4-14 14s6.4 14 14 14 14-6.4 14-14-6.4-14-14-14z" fill="#ff7043"/><path d="M392.4 358H360c-3.2 0-6-.4-6 2.8V422h40v-61.2c0-3.2 1.6-2.8-1.6-2.8z" fill="#e57373"/><path d="M320 358h-32c-3.2 0-6-.4-6 2.8V422h40v-61.2c0-3.2 1.2-2.8-2-2.8z" fill="#4db6ac"/><path d="M464 358h-32.4c-3.2 0-6-.4-6 2.8V422h40v-61.2c.4-3.2 2-2.8-1.6-2.8z" fill="#fbc02d"/><path d="M417.2 210l-26 79.2c-.4.8-1.2.8-2 .8s-1.6-.8-2-1.6l-24-79.2-17.6-58-21.6 57.6-16.4 43.2c-.4.8-.8 1.2-1.6 1.2s-1.6 0-2-.4L282 210h-58l-26 79.2c-.4.8-1.2.8-2 .8s-1.6-.8-2-1.6l-24-79.2-17.6-57.6-21.6 57.6-16.4 43.2c-.4.8-.8 1.2-1.6 1.2s-1.6 0-2-.4l-22-42.8H42v112h424v-112l-48.8-.4z" fill="#b2dfdb"/><path d="M42 94v112h48.4c.8 0 1.6 0 1.6.4l1.6 2.8 19.2 37.6 14-37.6 24.4-64.4c.4-.8 1.2-1.2 2-1.2s1.6.4 2 1.6l19.6 64.4 22 72.4 23.6-72.4.8-2c.4-.8 1.2-.8 2-.8h60.4c.8 0 1.6 0 1.6.4l1.6 2.8 19.2 37.2 14-37.6 24.4-64.4c.4-.8 1.2-1.2 2-1.2s1.6.4 2 1.6L368 210l22 72 23.6-72 .8-2c.4-.8 1.2-.8 2-.8h50.4v-112L42 94z" fill="#e0f2f1"/><path d="M468 452H36c-2.4 0-4-1.6-4-4v-20.4C15.2 424.4 0 408 0 392V87.2C0 68.8 19.6 56 37.6 56h440.8c18 0 29.6 12 29.6 31.2V392c0 17.6-10.4 36.4-29.6 36.4H472v20c0 1.6-1.6 3.6-4 3.6zm-428-8h424v-20c0-2.4 1.6-4 4-4h10.4c14 0 21.6-14.4 21.6-28.4V86.8c0-14.8-8-23.2-21.6-23.2H37.6C23.2 63.6 8 72.8 8 86.8v304.8C8 405.2 23.2 420 37.6 420c2.4 0 4 1.6 4 4 0 1.2-.8 2.4-1.6 3.2V444z"/><path d="M468 328H40c-2.4 0-4-1.6-4-4V96c0-2.4 1.6-4 4-4h382c2.4 0 4 1.6 4 4s-1.6 4-4 4H44v220h420V100h-10c-2.4 0-4-1.6-4-4s1.6-4 4-4h14c2.4 0 4 1.6 4 4v228c0 2-1.6 4-4 4zM60 396.8c-11.2 0-20-8.8-20-20s8.8-20 20-20 20 8.8 20 20-8.8 20-20 20zm0-32c-6.4 0-12 5.2-12 12s5.2 12 12 12c6.4 0 12-5.2 12-12s-5.2-12-12-12zM116 396.8c-11.2 0-20-8.8-20-20s8.8-20 20-20c10.8 0 20 8.8 20 20s-8.8 20-20 20zm0-32c-6.4 0-12 5.2-12 12s5.2 12 12 12 12-5.2 12-12-5.2-12-12-12zM172 396.8c-10.8 0-20-8.8-20-20s8.8-20 20-20 20 8.8 20 20-8.8 20-20 20zm0-32c-6.4 0-12 5.2-12 12s5.2 12 12 12 12-5.2 12-12-5.2-12-12-12zM396 426c-2.4 0-4-1.6-4-4v-62h-36v62c0 2.4-1.6 4-4 4s-4-1.6-4-4v-62.4c0-2 0-4.4 1.6-6s4-1.6 6.4-1.6h36.4c2 0 4.4 0 6.4 1.6 1.6 1.6 1.6 3.6 1.6 5.6V422c-.4 2-2 4-4.4 4zM324 426c-2.4 0-4-1.6-4-4v-62h-36v62c0 2.4-1.6 4-4 4s-4-1.6-4-4v-62c0-2.4 0-4.4 1.6-6.4 1.6-1.6 4.4-1.6 6.4-1.6h36c2 0 4.4 0 6.4 1.6 1.6 1.6 1.6 3.6 1.6 6V422c0 2-1.6 4-4 4zM468 426c-2.4 0-4-1.6-4-4v-62h-36v62c0 2.4-1.6 4-4 4s-4-1.6-4-4v-62.4c0-2 0-4 1.6-6 1.6-1.6 4-1.6 6.4-1.6h36.4c2 0 4.4 0 6.4 1.6 1.6 1.6 1.6 3.6 1.6 5.6V421.6c-.4 2.4-2 4.4-4.4 4.4z"/><path d="M482 428H34c-2.4 0-4-1.6-4-4s1.6-4 4-4h448c2.4 0 4 1.6 4 4s-1.6 4-4 4zM196 292.4c-1.6 0-3.2-1.2-4-2.8L152.4 158l-36 95.6c-.4 1.6-2 2.4-3.6 2.4s-3.2-.8-3.6-2l-21.6-42H42c-2.4 0-4-1.6-4-4s1.6-4 4-4h48.4c1.6 0 2.8.8 3.6 2l18.4 36 36.8-98c.8-1.6 2.4-2.8 4-2.4 1.6 0 3.2 1.2 3.6 2.8l39.6 130.8 22.8-68.4c.4-1.6 2-2.8 3.6-2.8h60.4c1.6 0 2.8.8 3.6 2l18.4 36 36.8-98c.8-1.6 2.4-2.4 4-2.4s3.2 1.2 3.6 2.8l39.6 130.8 22.8-68.4c.4-1.6 2-2.8 3.6-2.8H466c2.4 0 4 1.6 4 4s-1.6 4-4 4h-47.6l-25.6 77.6c-.4 1.6-2 2.8-3.6 2.8s-3.2-1.2-3.6-2.8L346 158l-36 95.6c-.4 1.6-2 2.4-3.6 2.4s-3.2-.8-3.6-2l-21.6-42H226l-25.6 77.6c-1.2 1.6-2.4 2.8-4.4 2.8zM314 396h-20c-2.4 0-4-1.6-4-4s1.6-4 4-4h20c2.4 0 4 1.6 4 4s-1.6 4-4 4zM386 396h-20c-2.4 0-4-1.6-4-4s1.6-4 4-4h20c2.4 0 4 1.6 4 4s-1.6 4-4 4zM458 396h-20c-2.4 0-4-1.6-4-4s1.6-4 4-4h20c2.4 0 4 1.6 4 4s-1.6 4-4 4z"/></svg>