<svg xmlns="http://www.w3.org/2000/svg" viewBox="0 0 506 506"><path d="M475.6 123.4H351.2v12.4c0 8-2.4 14.4-10 14.4s-14-6.4-14-14.4v-12.4H182v16c0 8-6.4 14.4-14 14.4s-14-6.4-14-14.4v-16H36.4c-15.2 0-31.6 11.2-31.6 28.8V185h500v-32.8c-.8-16.4-12.8-28.8-29.2-28.8z" fill="#e57373"/><path d="M4 181.4v246.8c0 16.4 15.2 32 31.2 32h434.4c16.8 0 28.4-16.4 28.4-32V181.4H4z" fill="#bf360c"/><g fill="#ff8a65"><path d="M103.6 193.4v-16h-48v16zM452.4 195.4v-20h-48v20z"/></g><path d="M304.4 45.8H201.2c-25.2 0-45.6 18.8-45.6 41.6V141c0 5.6 4.4 10 10 10s10-4.4 10-10V87.4c0-13.6 13.2-22 25.6-22h103.2c13.6 0 22.4 8.8 22.4 22v50c0 5.6 4.4 10 10 10s10-4.4 10-10v-50c0-24-18-41.6-42.4-41.6z" fill="#795548"/><path d="M348.8 299h-58c-2.4 0-6-3.6-6-6v-58.4c0-2.8-.8-3.2-4-3.2H232c-2.8 0-7.2.4-7.2 3.2V293c0 2.4.4 6-2 6H164c-2.8 0-6.8.4-6.8 3.2v41.2c0 3.2 4 7.2 6.8 7.2h58.8c2.4 0 2-.4 2 2v58c0 3.2 4.4 7.6 7.2 7.6h48.8c3.2 0 4-4.8 4-7.6v-58c0-2 3.6-2 6-2h58c3.2 0 3.6-4.4 3.6-7.2v-41.2c.4-2.8-.4-3.2-3.6-3.2z" fill="#eee"/><path d="M324.8 125.4H181.2c-2.4 0-4-1.6-4-4s1.6-4 4-4h143.6c2.4 0 4 1.6 4 4s-2 4-4 4z"/><path d="M471.6 464.2H37.2C18 464.2 0 445 0 424.2V153.4c0-20.8 18.8-32 37.2-32h116c2.4 0 4 1.6 4 4s-1.6 4-4 4h-116c-14.4 0-29.2 8.4-29.2 24v270.8c0 16 14.4 32 29.2 32h434.4c15.6 0 26.4-16.8 26.4-32V153.4c0-14.8-10-24-26.4-24H352.4c-2.4 0-4-1.6-4-4s1.6-4 4-4h119.2c20.4 0 34.4 12.8 34.4 32v270.8c0 19.2-13.6 40-34.4 40z"/><path d="M107.6 201.4H52c-2.4 0-4-1.6-4-4v-24c0-2.4 1.6-4 4-4h55.6c2.4 0 4 1.6 4 4v24c0 2-2 4-4 4zm-51.6-8h47.6v-16H56v16zM454 201.4h-51.6c-2.4 0-4-1.6-4-4v-24c0-2.4 1.6-4 4-4H454c2.4 0 4 1.6 4 4v24c0 2-1.6 4-4 4zm-47.6-8H450v-16h-43.6v16zM167.2 157c-8.8 0-16-7.2-16-16V87.4c0-26 22-45.6 51.6-45.6H306c28.4 0 48.4 18.8 48.4 45.6v50c0 8.8-7.2 16-16 16s-16-7.2-16-16v-50c0-11.6-8.8-14-16.4-14H202.8c-9.6 0-19.6 4.4-19.6 14V141c0 8.8-7.2 16-16 16zm35.6-107.2c-21.2 0-43.6 13.2-43.6 37.6V141c0 4.4 3.6 8 8 8s8-3.6 8-8V87.4c0-12.8 11.2-22 27.6-22H306c15.2 0 24.4 8.4 24.4 22v50c0 4.4 3.6 8 8 8s8-3.6 8-8v-50c0-22.4-16.8-37.6-40.4-37.6H202.8z"/><path d="M50 189.4H6c-2.4 0-4-1.6-4-4s1.6-4 4-4h44c2.4 0 4 1.6 4 4s-2 4-4 4zM400.4 189.4h-12c-2.4 0-4-1.6-4-4s1.6-4 4-4h12c2.4 0 4 1.6 4 4s-1.6 4-4 4zM356.4 189.4H109.2c-2.4 0-4-1.6-4-4s1.6-4 4-4h247.2c2.4 0 4 1.6 4 4s-1.6 4-4 4zM496 189.4h-40c-2.4 0-4-1.6-4-4s1.6-4 4-4h40c2.4 0 4 1.6 4 4s-1.6 4-4 4zM272.8 425h-38c-7.6 0-12.4-5.2-12.4-13.2v-55.2h-55.2c-8 0-13.2-4.8-13.2-12.4v-38.4c0-7.6 5.2-12.4 13.2-12.4h55.2v-55.2c0-7.6 5.2-13.2 12.4-13.2h38c7.6 0 12.8 5.2 12.8 13.2v55.2h55.2c3.6 0 6.8 1.2 9.2 3.2 2.4 2.4 4 5.6 4 9.2v38.4c0 7.2-5.2 12.4-13.2 12.4h-55.2v55.2c0 8-5.2 13.2-12.8 13.2zM167.2 301.4c-2 0-5.2.4-5.2 4.4v38.4c0 2.8 1.6 4.4 5.2 4.4h59.2c2.4 0 4 1.6 4 4v59.2c0 2 .4 5.2 4.4 5.2h38c4.4 0 4.8-3.6 4.8-5.2v-59.2c0-2.4 1.6-4 4-4h59.2c3.2 0 5.2-1.6 5.2-4.4v-38.4c0-1.6-.4-2.4-1.2-3.2-.8-.8-2.4-1.2-4-1.2h-59.2c-2.4 0-4-1.6-4-4v-59.2c0-1.6-.4-5.2-4.8-5.2h-38c-4 0-4.4 3.2-4.4 5.2v59.2c0 2.4-1.6 4-4 4h-59.2z"/></svg>