<svg xmlns="http://www.w3.org/2000/svg" viewBox="0 0 507.6 507.6"><path d="M122.182 422.8v52.4l.8 9.2c2 9.2 10.4 17.2 20.4 17.2h224.4c10 0 18.4-8 20.4-17.2V158.8c0-1.6-.4-4.4-.4-4.4h-264.4c-.4 0-1.2.8-1.2 2.4v266z" fill="#ff7043"/><path d="M382.582 142l-58.4-56h-137.6l-58 56s-6.8 4.8-8.4 13.2h266c-2-8-3.6-12.8-3.6-13.2z" fill="#ffcc80"/><path d="M384.182 483.6c.4-1.2.4-2.8.4-4v-4l-.4 8z" fill="#2e7d32"/><path fill="#b2dfdb" d="M122.182 235.6h170.4v181.6h-170.4z"/><path d="M335.782 17.6c0-6.8-5.6-12-12-12h-141.2c-6.8 0-12 5.6-12 12V70c0 6.8 5.6 12 12 12h141.2c6.8 0 12-5.6 12-12V17.6z" fill="#bf360c"/><path d="M321.382 88.4h-137.2c-11.2 0-20-9.2-20-20V20c0-11.2 9.2-20 20-20h137.2c11.2 0 20 9.2 20 20v48.4c0 10.8-8.8 20-20 20zm-137.2-80.8c-6.8 0-12 5.6-12 12V68c0 6.8 5.6 12 12 12h137.2c6.8 0 12-5.6 12-12V19.6c0-6.8-5.6-12-12-12h-137.2zM323.382 483.6h-201.6c-2.4 0-4-1.6-4-4s1.6-4 4-4h201.6c2.4 0 4 1.6 4 4s-2 4-4 4zM383.782 483.6h-24c-2.4 0-4-1.6-4-4s1.6-4 4-4h24c2.4 0 4 1.6 4 4s-1.6 4-4 4zM292.982 422.8h-171.2c-2.4 0-4-1.6-4-4s1.6-4 4-4h167.2V237.6h-167.2c-2.4 0-4-1.6-4-4s1.6-4 4-4h171.2c2.4 0 4 1.6 4 4v185.6c0 2-1.6 3.6-4 3.6z"/><path d="M364.582 507.6h-217.6c-15.6 0-31.2-14.8-31.2-30.4V158.8c0-14 10.4-22.4 10.8-22.8l56-54.8c1.6-1.6 4-1.6 5.6 0s1.6 4 0 5.6l-56.4 54.8c-.4.4-8.4 6.8-8.4 16.8v318.4c0 11.2 11.6 22.4 23.2 22.4h217.6c10.8 0 20-10 20-21.2l-.4-318.4c0-10-6.8-17.6-7.2-17.6l-54-54c-1.6-1.6-1.6-4 0-5.6s4-1.6 5.6 0l54 54c.4.4 9.2 10 9.2 23.2l.4 318.4c.8 16.4-12 29.6-27.2 29.6z"/><path d="M383.782 156.8h-229.6c-2.4 0-4-1.6-4-4s1.6-4 4-4h230c2.4 0 4 1.6 4 4s-2 4-4.4 4z"/></svg>