<?xml version="1.0" standalone="no"?>
<!DOCTYPE svg PUBLIC "-//W3C//DTD SVG 20010904//EN"
 "http://www.w3.org/TR/2001/REC-SVG-20010904/DTD/svg10.dtd">
<svg version="1.0" xmlns="http://www.w3.org/2000/svg"
 width="192.000000pt" height="192.000000pt" viewBox="0 0 192.000000 192.000000"
 preserveAspectRatio="xMidYMid meet">

<g transform="translate(0.000000,192.000000) scale(0.100000,-0.100000)"
fill="#000000" stroke="none">
<path d="M1558 1634 c6 -3 12 -12 12 -20 0 -9 4 -13 9 -10 5 4 24 -6 43 -21
18 -15 27 -20 19 -10 -7 9 -12 17 -10 18 2 0 17 3 33 5 l28 5 -22 -31 c-25
-35 -28 -36 -46 -12 -12 15 -13 14 -4 -11 5 -15 12 -39 14 -53 5 -29 16 -45
16 -25 0 7 4 10 10 6 5 -3 8 5 7 17 -1 15 10 35 31 55 29 29 33 30 42 14 5
-10 7 -27 4 -38 -7 -24 12 -39 29 -24 8 6 18 6 27 1 18 -11 40 -13 24 -2 -6 4
-16 17 -23 30 -10 18 -15 21 -26 12 -11 -9 -12 -7 -9 8 6 22 -7 33 -63 54 -31
12 -43 13 -43 5 0 -7 -4 -6 -10 3 -8 13 -10 13 -10 1 0 -12 -3 -11 -12 2 -7 9
-29 19 -48 22 -19 3 -29 3 -22 -1z"/>
<path d="M1529 1623 c0 -5 -2 -18 -3 -30 -1 -12 1 -20 4 -18 8 5 11 55 4 55
-2 0 -4 -3 -5 -7z"/>
<path d="M1475 1579 c-16 -16 -35 -27 -42 -25 -16 6 -27 -10 -13 -19 6 -4 8
-10 6 -14 -3 -4 0 -13 5 -21 8 -11 9 -8 6 13 -5 33 -1 34 24 5 20 -25 25 -43
9 -33 -5 3 -8 0 -5 -7 3 -7 22 -14 42 -16 43 -3 49 -7 35 -24 -10 -13 -12 -18
-12 -39 0 -5 -5 -7 -12 -3 -6 4 -8 3 -5 -3 4 -6 0 -27 -9 -48 -12 -31 -17 -35
-30 -24 -8 6 -13 14 -10 16 2 3 -6 28 -19 58 -13 29 -22 55 -19 58 10 10 54
-19 54 -35 0 -16 3 -15 26 5 l26 22 -39 8 c-21 5 -48 9 -60 9 -13 0 -20 4 -17
9 3 5 0 8 -7 7 -7 -2 -15 6 -17 17 -4 16 -2 17 11 7 13 -11 15 -10 10 7 -6 22
-23 29 -23 10 0 -5 -4 -8 -9 -4 -6 3 -6 -7 0 -27 11 -41 11 -41 -2 -32 -8 4
-9 -1 -4 -17 7 -22 7 -23 -10 -9 -17 14 -18 14 -5 -10 12 -23 12 -24 -3 -11
-25 20 -22 -5 3 -31 11 -12 20 -16 20 -9 0 7 5 9 10 6 6 -3 14 4 19 17 8 22 9
21 25 -16 9 -22 43 -66 76 -98 65 -63 83 -67 24 -6 -32 35 -40 69 -11 51 7 -4
17 -8 22 -8 39 -3 66 -20 71 -44 3 -14 8 -34 10 -43 4 -12 -3 -19 -20 -24 -29
-7 -36 -27 -8 -22 26 5 46 39 45 78 l-1 35 6 -35 c6 -27 11 -34 26 -32 37 7
67 22 61 32 -4 6 1 7 10 3 12 -4 13 -8 5 -13 -19 -12 25 -23 61 -15 16 4 37
17 45 30 14 22 14 26 0 47 -14 20 -16 20 -16 4 0 -11 -3 -17 -6 -13 -4 3 -4
14 0 23 5 13 9 14 21 4 12 -10 15 -10 15 3 0 8 -11 18 -24 21 -26 6 -56 31
-56 46 0 4 10 6 22 2 14 -3 19 -2 14 6 -10 17 -26 15 -48 -5 -17 -15 -18 -15
-18 10 0 14 5 29 12 33 6 4 8 3 4 -4 -9 -15 7 -23 24 -11 13 7 13 9 0 9 -10 0
-7 7 10 20 14 11 20 20 13 20 -6 0 -15 -4 -18 -10 -3 -5 -11 -10 -16 -10 -6 0
-8 4 -4 9 3 5 1 12 -5 16 -5 3 -10 1 -10 -5 0 -7 -8 -9 -20 -5 -10 3 -29 1
-42 -6 l-22 -12 18 27 c10 15 15 30 13 32 -6 6 -47 -50 -47 -64 0 -6 -9 -8
-20 -5 -16 4 -20 0 -20 -19 0 -14 3 -28 7 -32 11 -11 12 -36 1 -36 -6 0 -8 7
-5 15 4 8 2 17 -4 20 -5 4 -9 21 -7 39 1 17 -2 37 -6 44 -4 7 -10 25 -12 39
-6 33 -14 43 -14 18 0 -27 -48 -67 -72 -59 -13 4 -17 11 -13 22 4 10 7 22 7
27 -2 32 -5 85 -6 84 -1 -1 -14 -14 -31 -30z m125 -98 c0 -15 -5 -18 -21 -14
-21 6 -21 7 -4 20 24 17 25 17 25 -6z m150 -31 c0 -5 -6 -10 -14 -10 -8 0 -18
5 -21 10 -3 6 3 10 14 10 12 0 21 -4 21 -10z m-151 -55 c-2 -49 -4 -54 -23
-50 -12 2 -29 4 -39 4 -10 1 -15 6 -12 11 4 6 11 7 17 4 7 -4 8 -2 4 4 -4 6
-1 22 6 34 7 13 11 29 10 36 -2 6 7 12 18 12 19 0 21 -5 19 -55z m172 -78 c-8
-8 -11 -7 -11 4 0 9 3 19 7 23 4 4 9 2 11 -4 3 -7 -1 -17 -7 -23z m51 24 c-20
-12 -21 -45 -3 -54 12 -5 10 -6 -6 -3 -22 4 -40 -19 -23 -29 6 -4 10 -2 10 2
0 5 9 9 20 10 11 1 20 -2 20 -8 0 -5 -6 -9 -12 -9 -7 0 -23 -3 -34 -6 -18 -5
-22 -1 -26 25 -2 16 0 28 4 25 5 -3 14 8 21 25 6 17 18 31 27 31 12 0 12 -2 2
-9z"/>
<path d="M1586 1573 c-6 -14 -5 -15 5 -6 7 7 10 15 7 18 -3 3 -9 -2 -12 -12z"/>
<path d="M1323 1382 c15 -16 14 -18 -12 -30 -34 -15 -46 -50 -26 -72 19 -22
19 -26 -6 -62 -12 -16 -18 -32 -15 -35 3 -4 6 -1 6 7 0 10 3 10 15 0 12 -10
15 -10 16 1 1 8 2 19 4 24 1 6 3 20 3 33 1 13 6 21 11 18 5 -4 11 -1 13 5 2 7
18 -8 36 -31 18 -24 32 -41 32 -36 0 4 -12 22 -26 41 -14 18 -26 44 -28 57 -1
13 -5 29 -9 35 -4 6 -3 15 3 18 6 4 9 2 8 -3 -2 -5 31 -40 72 -78 45 -41 57
-49 30 -21 -24 26 -40 47 -35 47 6 0 -14 23 -44 50 -54 50 -79 66 -48 32z m-3
-71 c0 -6 -4 -12 -8 -15 -5 -3 -9 1 -9 9 0 8 4 15 9 15 4 0 8 -4 8 -9z"/>
<path d="M1410 1326 c0 -2 17 -16 38 -31 l37 -28 -29 31 c-26 28 -46 40 -46
28z"/>
<path d="M1601 1244 c0 -11 3 -14 6 -6 3 7 2 16 -1 19 -3 4 -6 -2 -5 -13z"/>
<path d="M1320 1221 c0 -6 4 -13 10 -16 6 -3 7 1 4 9 -7 18 -14 21 -14 7z"/>
<path d="M1067 1203 c-4 -3 -7 -11 -7 -17 0 -6 5 -5 12 2 6 6 9 14 7 17 -3 3
-9 2 -12 -2z"/>
<path d="M1109 1189 c-6 -12 -9 -34 -5 -49 3 -19 1 -30 -9 -34 -8 -3 -15 -13
-14 -23 0 -16 1 -16 9 2 6 14 9 15 10 5 0 -13 2 -13 9 0 8 14 21 120 15 120
-2 0 -8 -10 -15 -21z"/>
<path d="M1155 1196 c6 -2 22 -7 37 -10 24 -6 27 -10 23 -39 l-5 -32 14 35 c7
19 12 37 10 39 -2 2 -23 5 -46 7 -24 2 -38 2 -33 0z"/>
<path d="M1311 1174 c0 -11 3 -14 6 -6 3 7 2 16 -1 19 -3 4 -6 -2 -5 -13z"/>
<path d="M963 1160 c-13 -5 -23 -11 -23 -14 0 -7 40 6 46 15 6 10 6 10 -23 -1z"/>
<path d="M1060 1155 c0 -8 2 -15 4 -15 2 0 6 7 10 15 3 8 1 15 -4 15 -6 0 -10
-7 -10 -15z"/>
<path d="M983 1109 c-7 -18 -11 -34 -9 -37 7 -7 27 39 24 55 -2 9 -8 2 -15
-18z"/>
<path d="M880 1120 c0 -5 -7 -10 -16 -10 -9 0 -12 -5 -8 -12 14 -23 13 -63 -2
-87 -9 -13 -11 -20 -5 -17 6 4 11 3 11 -2 0 -5 11 -7 25 -4 30 5 34 22 5 22
-11 0 -20 5 -20 11 0 6 9 9 20 6 16 -4 20 -1 16 11 -3 9 -6 34 -8 55 -1 20 -6
37 -10 37 -4 0 -8 -4 -8 -10z"/>
<path d="M1606 1123 c-4 -4 -26 -7 -49 -6 l-42 2 35 -8 c19 -5 43 -12 53 -16
13 -5 17 -2 17 14 0 22 -3 25 -14 14z"/>
<path d="M1041 1102 c-18 -33 -39 -101 -33 -107 3 -3 16 22 29 56 23 60 25 90
4 51z"/>
<path d="M1186 1095 c-3 -9 -5 -29 -5 -43 1 -20 3 -17 9 13 8 43 7 57 -4 30z"/>
<path d="M1201 1038 c-7 -40 -19 -97 -26 -125 -15 -60 -2 -74 14 -15 14 47 35
202 29 208 -3 2 -10 -29 -17 -68z"/>
<path d="M1253 1089 c-4 -13 -8 -16 -13 -9 -4 6 -7 -3 -7 -20 0 -38 15 -39 23
-2 3 15 7 33 10 40 2 6 1 12 -2 12 -3 0 -8 -9 -11 -21z"/>
<path d="M130 1091 c0 -4 15 -14 33 -23 19 -9 34 -23 34 -31 0 -11 -8 -12 -41
-5 -56 13 -60 22 -6 14 l45 -6 -38 15 c-21 8 -62 18 -90 21 -48 7 -51 6 -38
-9 9 -11 21 -15 37 -11 14 4 24 2 24 -5 0 -11 90 -41 123 -41 11 0 26 -8 34
-17 14 -17 14 -17 9 -1 -4 13 0 17 16 15 11 -1 23 4 25 11 3 7 -3 12 -14 12
-11 0 -37 13 -59 29 -39 29 -94 48 -94 32z m100 -61 c0 -5 -2 -10 -4 -10 -3 0
-8 5 -11 10 -3 6 -1 10 4 10 6 0 11 -4 11 -10z"/>
<path d="M1456 1076 c10 -8 21 -12 24 -10 5 6 -21 24 -34 24 -6 0 -1 -6 10
-14z"/>
<path d="M1127 1045 c-18 -67 -18 -70 -2 -42 9 16 15 38 13 50 -3 19 -5 18
-11 -8z"/>
<path d="M1528 1063 c7 -3 16 -2 19 1 4 3 -2 6 -13 5 -11 0 -14 -3 -6 -6z"/>
<path d="M1578 1053 c-16 -2 -28 -8 -28 -12 0 -10 31 -8 49 3 9 6 23 -2 43
-21 26 -26 28 -33 19 -52 -13 -24 -44 -30 -35 -6 7 16 -11 21 -21 5 -4 -6 -15
-6 -32 1 -14 5 -29 6 -32 1 -3 -5 -18 -9 -33 -9 -66 -2 -73 -5 -33 -15 22 -5
57 -7 78 -5 20 3 35 1 32 -4 -7 -10 51 -1 76 12 9 5 19 6 21 3 3 -2 11 3 19
13 8 9 10 14 4 11 -5 -3 -26 14 -45 38 -19 24 -39 43 -45 43 -5 -1 -22 -4 -37
-6z"/>
<path d="M726 1016 c3 -48 14 -77 25 -71 5 4 3 19 -6 35 -19 36 -19 35 5 37
11 1 20 -3 20 -8 0 -6 -4 -7 -10 -4 -5 3 -10 2 -10 -4 0 -16 18 -22 23 -9 3 8
9 3 14 -11 6 -15 12 -20 17 -13 6 11 -57 82 -73 82 -4 0 -7 -15 -5 -34z"/>
<path d="M982 1030 c0 -14 2 -19 5 -12 2 6 2 18 0 25 -3 6 -5 1 -5 -13z"/>
<path d="M1296 1035 c-3 -9 -6 -26 -5 -38 1 -16 4 -12 10 12 10 34 6 55 -5 26z"/>
<path d="M697 1033 c-2 -5 2 -30 9 -58 l13 -50 -5 45 c-4 25 -6 51 -7 58 0 14
-4 15 -10 5z"/>
<path d="M938 1015 c-3 -14 -1 -25 3 -25 5 0 9 11 9 25 0 14 -2 25 -4 25 -2 0
-6 -11 -8 -25z"/>
<path d="M1361 1014 c0 -11 3 -14 6 -6 3 7 2 16 -1 19 -3 4 -6 -2 -5 -13z"/>
<path d="M321 990 c0 -33 1 -34 11 -12 8 17 8 26 0 34 -9 9 -12 4 -11 -22z"/>
<path d="M673 1006 c4 -10 7 -26 7 -37 0 -10 4 -19 8 -19 12 0 2 59 -11 67 -7
4 -8 0 -4 -11z"/>
<path d="M1226 1005 c-9 -26 -7 -32 5 -12 6 10 9 21 6 23 -2 3 -7 -2 -11 -11z"/>
<path d="M613 1000 c-25 -10 -30 -44 -12 -70 8 -11 9 -6 5 23 -2 20 -1 37 4
37 5 0 10 -15 12 -32 3 -31 4 -30 9 10 2 23 4 42 4 41 0 0 -10 -4 -22 -9z"/>
<path d="M357 970 c-3 -12 0 -20 8 -20 8 0 11 8 8 20 -3 11 -7 20 -8 20 -1 0
-5 -9 -8 -20z"/>
<path d="M415 979 c-4 -6 -3 -15 3 -21 6 -6 11 -4 15 6 7 18 -9 31 -18 15z"/>
<path d="M651 958 c5 -17 14 -36 20 -42 9 -8 10 -6 5 7 -3 11 -9 30 -12 43 -3
13 -10 24 -14 24 -5 0 -4 -14 1 -32z"/>
<path d="M1508 983 c7 -3 16 -2 19 1 4 3 -2 6 -13 5 -11 0 -14 -3 -6 -6z"/>
<path d="M475 969 c-11 -17 35 -49 71 -49 31 0 33 2 24 24 -5 13 -6 27 -3 30
4 3 1 6 -5 6 -6 0 -14 -11 -18 -25 -3 -14 -13 -25 -20 -25 -8 0 -19 11 -24 25
-10 27 -16 30 -25 14z"/>
<path d="M867 935 c-4 -8 -2 -17 3 -20 6 -4 10 3 10 14 0 25 -6 27 -13 6z"/>
<path d="M1276 913 c-4 -21 -10 -47 -13 -58 -3 -13 -2 -17 5 -10 10 10 27 105
19 105 -3 0 -8 -17 -11 -37z"/>
<path d="M835 931 c-6 -5 -19 -11 -30 -14 -19 -4 -19 -5 1 -6 12 0 27 6 34 14
14 16 10 20 -5 6z"/>
<path d="M890 921 c0 -5 15 -16 34 -26 30 -16 33 -21 25 -47 -4 -16 -4 -26 1
-23 5 3 11 20 15 38 4 17 9 41 11 52 3 13 2 16 -3 8 -6 -8 -20 -9 -46 -4 -20
5 -37 6 -37 2z"/>
<path d="M1655 917 c-16 -7 -31 -19 -33 -27 -3 -12 -1 -12 9 -3 10 10 15 9 26
-5 14 -16 14 -16 9 2 -4 11 0 24 11 32 22 16 18 16 -22 1z"/>
<path d="M1028 893 c7 -3 16 -2 19 1 4 3 -2 6 -13 5 -11 0 -14 -3 -6 -6z"/>
<path d="M1590 890 c-9 -6 -10 -10 -3 -10 6 0 15 5 18 10 8 12 4 12 -15 0z"/>
<path d="M752 877 c-5 -6 -11 -21 -14 -33 -4 -17 -1 -21 16 -19 38 4 41 6 21
16 -13 6 5 7 55 3 66 -4 73 -3 60 10 -8 8 -33 16 -55 17 -22 1 -47 6 -56 11
-10 4 -21 3 -27 -5z"/>
<path d="M1695 879 c3 -3 16 -6 30 -6 14 0 23 2 20 6 -9 8 -55 9 -50 0z"/>
<path d="M1477 856 c-6 -16 -10 -16 -25 -5 -16 12 -16 12 0 -6 13 -14 21 -16
29 -8 6 6 9 17 7 24 -3 9 -7 7 -11 -5z"/>
<path d="M1580 855 c-7 -9 -8 -15 -2 -15 5 0 12 7 16 15 3 8 4 15 2 15 -2 0
-9 -7 -16 -15z"/>
<path d="M1356 846 c18 -14 18 -15 2 -21 -10 -4 -18 -11 -18 -16 0 -6 8 -6 19
0 14 8 26 5 52 -14 42 -32 45 -31 19 5 -12 16 -24 29 -28 29 -20 -3 -23 3 -11
19 13 15 12 16 -3 4 -11 -9 -18 -10 -23 -2 -3 5 -11 10 -18 10 -6 0 -2 -6 9
-14z"/>
<path d="M1704 845 c22 -17 40 -20 32 -6 -3 5 -16 11 -28 14 -22 6 -22 5 -4
-8z"/>
<path d="M1208 843 c6 -2 18 -2 25 0 6 3 1 5 -13 5 -14 0 -19 -2 -12 -5z"/>
<path d="M1420 847 c0 -14 24 -57 32 -57 15 0 8 27 -12 45 -11 10 -20 15 -20
12z"/>
<path d="M1527 834 c5 -13 2 -15 -15 -9 -36 11 -25 -3 17 -23 38 -19 41 -19
78 -1 21 9 33 18 26 18 -6 1 -13 7 -16 14 -2 6 -3 5 -2 -5 2 -11 -7 -17 -27
-20 -24 -4 -31 0 -39 19 -5 12 -13 23 -18 23 -6 0 -8 -7 -4 -16z"/>
<path d="M970 836 c0 -2 8 -10 18 -17 15 -13 16 -12 3 4 -13 16 -21 21 -21 13z"/>
<path d="M1646 827 c3 -10 9 -15 12 -12 3 3 0 11 -7 18 -10 9 -11 8 -5 -6z"/>
<path d="M1676 821 c-3 -5 9 -19 27 -31 29 -20 24 -21 -19 -4 -12 5 -15 2 -12
-12 2 -12 12 -19 26 -18 21 1 27 -8 22 -31 -1 -7 2 -7 8 0 6 6 12 26 15 46 4
32 1 39 -20 48 -29 13 -40 14 -47 2z"/>
<path d="M707 809 c7 -7 15 -10 18 -7 3 3 -2 9 -12 12 -14 6 -15 5 -6 -5z"/>
<path d="M738 793 c-38 -10 -58 -20 -61 -33 -3 -13 0 -17 9 -13 8 3 14 -1 14
-11 0 -13 -6 -15 -27 -10 -23 5 -26 4 -15 -7 6 -7 12 -24 12 -37 0 -16 -4 -21
-12 -16 -9 5 -9 2 1 -9 7 -9 21 -17 30 -16 10 0 11 2 4 6 -16 6 -17 33 -2 33
6 0 8 7 5 16 -3 9 -2 12 4 9 6 -4 10 -12 9 -18 -3 -26 2 -37 15 -37 27 0 28
-21 1 -58 l-26 -37 35 39 c20 22 36 47 36 56 0 21 24 43 35 32 5 -4 5 -2 1 5
-3 6 -2 14 3 18 15 9 34 -34 27 -65 -3 -17 2 -42 14 -66 11 -21 20 -32 20 -25
0 7 -8 26 -17 43 -18 29 -18 29 6 48 48 36 79 51 86 40 3 -5 0 -10 -8 -10 -8
0 -17 -8 -21 -17 -3 -10 -9 -25 -12 -33 -3 -9 2 -7 13 5 10 11 25 20 33 20 8
0 16 10 18 22 3 17 -3 24 -22 29 -36 9 -33 27 4 22 17 -3 30 -1 30 3 0 4 3 14
6 23 4 10 1 16 -9 16 -9 0 -24 10 -34 23 -19 23 -53 35 -53 17 0 -12 -72 -14
-85 -2 -6 5 -35 3 -67 -5z m52 -83 c-18 -12 -30 -13 -30 -2 0 4 10 9 22 9 18
2 20 0 8 -7z m-45 -30 c3 -5 -1 -10 -9 -10 -9 0 -16 5 -16 10 0 6 4 10 9 10 6
0 13 -4 16 -10z m127 -2 c-9 -9 -15 -9 -24 0 -9 9 -7 12 12 12 19 0 21 -3 12
-12z"/>
<path d="M1108 803 c7 -3 16 -2 19 1 4 3 -2 6 -13 5 -11 0 -14 -3 -6 -6z"/>
<path d="M1490 789 c6 -11 17 -18 23 -16 7 2 24 -5 40 -15 15 -11 27 -15 27
-9 0 10 -79 61 -94 61 -4 0 -2 -9 4 -21z"/>
<path d="M1033 793 c9 -2 25 -2 35 0 9 3 1 5 -18 5 -19 0 -27 -2 -17 -5z"/>
<path d="M1250 791 l-65 -6 50 -5 c60 -6 95 -2 95 11 0 5 -3 8 -7 7 -5 -1 -37
-4 -73 -7z"/>
<path d="M1463 750 c-1 -11 2 -18 8 -15 5 4 9 1 9 -4 0 -6 -4 -11 -10 -11 -16
0 -12 -19 11 -51 19 -27 18 -34 -4 -30 -5 1 -6 -3 -2 -9 8 -13 33 0 60 31 15
17 16 21 4 17 -9 -4 -16 -1 -16 8 0 18 8 18 33 -1 26 -19 34 -19 34 3 0 21
-30 52 -49 52 -7 0 -10 4 -6 9 3 5 1 12 -5 16 -5 3 -10 1 -10 -5 0 -7 -7 -9
-15 -6 -8 3 -21 8 -28 11 -8 3 -13 -3 -14 -15z"/>
<path d="M1628 763 c6 -2 18 -2 25 0 6 3 1 5 -13 5 -14 0 -19 -2 -12 -5z"/>
<path d="M1648 725 c-6 -14 -17 -25 -24 -25 -7 0 -16 -5 -20 -12 -5 -8 -2 -9
12 -4 12 5 7 -5 -16 -29 -19 -21 -43 -40 -52 -44 -14 -5 -14 -9 8 -34 l24 -28
55 47 c30 26 55 53 54 58 0 6 -7 1 -16 -11 -15 -22 -61 -34 -48 -13 3 6 -1 10
-11 10 -14 0 -14 3 -4 15 10 12 16 13 28 3 13 -11 14 -10 7 11 -5 17 -4 22 6
18 8 -2 13 -10 11 -16 -1 -7 2 -9 8 -6 6 4 20 -1 30 -10 36 -33 37 26 0 68
-29 33 -37 34 -52 2z"/>
<path d="M1405 729 c-9 -14 -2 -20 14 -10 8 6 9 11 3 15 -6 3 -14 1 -17 -5z"/>
<path d="M1423 711 c-26 -22 -30 -33 -8 -25 9 4 15 0 15 -8 0 -8 7 -23 15 -34
14 -17 15 -15 12 33 -1 29 -4 53 -7 53 -3 -1 -15 -9 -27 -19z"/>
<path d="M1318 662 c-21 -2 -28 -9 -28 -25 0 -18 6 -22 36 -24 20 -1 43 4 50
12 20 20 17 27 -5 15 -30 -16 -36 -12 -11 8 20 16 20 18 3 18 -10 0 -30 -2
-45 -4z"/>
<path d="M685 633 c-11 -3 -24 -9 -29 -14 -12 -11 66 1 79 12 10 10 -15 10
-50 2z"/>
<path d="M930 599 c-11 -19 -13 -19 -36 -4 -31 20 -31 7 2 -28 25 -28 50 -28
40 0 -3 8 -1 23 4 34 6 10 8 19 6 19 -3 0 -10 -9 -16 -21z m0 -39 c0 -5 -2
-10 -4 -10 -3 0 -8 5 -11 10 -3 6 -1 10 4 10 6 0 11 -4 11 -10z"/>
<path d="M1390 610 c8 -5 22 -9 30 -9 10 0 8 3 -5 9 -27 12 -43 12 -25 0z"/>
<path d="M610 569 c-19 -17 -34 -34 -33 -39 2 -5 -3 -7 -10 -4 -8 3 -25 -4
-38 -15 -23 -19 -23 -20 -5 -39 l18 -21 56 30 c99 51 107 62 70 96 l-23 21
-35 -29z m54 -41 c-4 -6 -13 0 -21 13 l-13 24 2 -30 c3 -26 0 -30 -23 -30 -33
-1 -32 26 2 54 l24 20 17 -20 c10 -12 15 -26 12 -31z"/>
<path d="M864 521 c-13 -13 1 -21 40 -21 40 0 76 18 44 22 -31 3 -80 3 -84 -1z"/>
<path d="M870 478 c0 -11 32 -10 50 2 11 8 7 10 -17 8 -18 -1 -33 -6 -33 -10z"/>
<path d="M872 406 c1 -29 6 -46 14 -46 7 0 19 -2 26 -5 17 -7 40 56 27 76 -4
7 -22 15 -38 17 -31 3 -31 3 -29 -42z"/>
</g>
</svg>
