<svg xmlns="http://www.w3.org/2000/svg" viewBox="0 0 508 508"><path d="M119.2 245.8c.8 0 1.6.4 2 1.2l1.2 6.8h29.2l18-53.6c.4-.8 1.2-1.6 2-1.6s1.6 1.2 2 2l16 53.6h37.2l.8-6.8c.4-.8 1.2-1.2 2-1.2H280c.8 0 1.6.4 2 1.2l1.2 6.8h29.2l18-53.6c.4-.8.8-1.6 2-1.6.8 0 1.6 1.2 2 2l16 53.6h37.2l.8-6.8c.4-.8 1.2-1.2 2-1.2h97.2c8.8-24 14-45.2 14-69.2 0-74-59.6-134.4-132.8-134.4-46.8 0-89.6 24.4-113.6 65.2-.8 1.2-2.8 1.2-3.6 0C227.2 67.4 184.8 43 138 43 64.8 43 5.2 103 5.2 177c0 23.6 5.2 47.2 14 69.2v.4l100-.8z" fill="#ef5350"/><g fill="#bf360c"><path d="M370.4 311.8c-.4.8-1.2 2-2 2s-1.6-1.2-2-2l-20.4-66h-29.2l-16 46.4c-.4.8-1.2.8-2 .8s-1.6 0-2-.8l-18.4-42.4h-47.6l-21.6 60.4c-.4.8-1.2.8-2 1.2-.8 0-1.6 0-2-.8l-20-64.8h-29.6l-16 46.4c-.4.8-1.2.8-2 .8s-1.6 0-2-.8l-18.4-42.4H20.4c52 120.4 218.8 210 232.4 216.8 13.6-6.8 180.4-96.4 232.4-216.8h-94l-20.8 62z"/><path d="M316.8 249.8H346l-13.6-42zM155.6 249.8h30l-14-42.4z"/></g><g fill="#ef5350"><path d="M387.6 249.8h-37.2l18 54.4zM312.4 249.8h-29.2l15.6 36.8zM151.6 249.8h-29.2l15.6 36.8zM226.8 249.8h-37.2l18 54.4z"/></g><path d="M368.4 313.8c-1.6 0-3.2-1.2-4-2.8L332 212.6 302.4 293c-.4 1.6-2 2.4-3.6 2.8-2 0-3.2-.8-3.6-2.4l-18-41.2H232l-21.2 59.2c-.4 1.6-2 2.8-4 2.8-1.6 0-3.2-1.2-3.6-2.8L170.8 213l-29.6 80.4c-.4 1.6-2 2.4-3.6 2.8-1.6 0-3.2-.8-3.6-2.4l-18-41.2H20.4c-2.4 0-4-1.6-4-4s1.6-4 4-4h98.4c1.6 0 3.2.8 3.6 2.4l14.8 34.4 30-81.6c.4-1.6 2-2.8 4-2.8 1.6 0 3.2 1.2 3.6 2.8l32.4 98.4 18.4-50.8c.4-1.6 2-2.8 3.6-2.8h50.4c1.6 0 3.2.8 3.6 2.4l14.8 34.4 30-81.6c.4-1.6 2-2.8 4-2.8 1.6 0 3.2 1.2 3.6 2.8l32.4 98.4 18.4-50.8c.4-1.6 2-2.8 3.6-2.8h95.6c2.4 0 4 1.6 4 4s-1.6 4-4 4h-92.8l-21.2 59.2c0 .8-1.6 2-3.2 2z"/><path d="M253.6 471.8c-.8 0-1.2 0-1.6-.4-.8-.4-63.6-31.6-125.6-83.2C43.6 319.4 0 246.2 0 176.2c0-77.2 62-140 138.8-140 46.8 0 89.6 23.2 115.2 62.8 26-39.2 68.4-62.8 115.2-62.8 76.4 0 138.8 62.8 138.8 140 0 70-43.6 143.6-126.4 212-62 51.6-125.2 82.8-125.6 83.2-1.2 0-1.6.4-2.4.4zm-115.2-428c-72 0-130.8 59.2-130.8 132 0 156.8 223.6 275.6 246 287.2 22.4-11.6 246-130.4 246-287.2 0-72.8-58.4-132-130.8-132-46 0-88 24-112 64.4-1.6 2.4-5.6 2.4-6.8 0-23.6-40.4-65.6-64.4-111.6-64.4z"/></svg>