<svg xmlns="http://www.w3.org/2000/svg" viewBox="0 0 507.607 507.607"><path d="M6 72.404v284.4h494c1.2 0 1.6 1.2 2 2.4v-286.4c0-16.4-13.6-30.4-30.4-30.4H36.8c-16.8 0-30.8 13.6-30.8 30z" fill="#bcaaa4"/><path d="M500 360.803H8v14c0 17.2 12 30.4 28.4 30.4h434.8c16.4 0 28.4-13.6 28.4-30.4v-14.4c.4.8.4.4.4.4zm-246 31.601c-5.6 0-10-4.4-10-10s4.4-10 10-10 10 4.4 10 10c0 5.199-4.4 10-10 10z" fill="#e0e0e0"/><path d="M24 335.603v2h2c-.8 0-2-.8-2-2z" fill="#ffcdd2"/><path d="M459.6 66.803H28v266h447.6v-266h-16zm-108.8 152.8c0 6.4-2.8 12.4-9.2 12.4h-59.2v56c0 6.8-3.2 12.4-9.6 12.4h-37.2c-6.4 0-13.6-6.4-13.6-12.4v-56h-55.2c-6.4 0-13.6-6-13.6-12.4v-37.6c0-6.4 6.8-10.4 13.6-10.4H222v-58c0-6.4 6.8-10.4 13.6-10.4h37.2c6.4 0 9.6 4 9.6 10.4v58h59.2c6.4 0 9.2 4 9.2 10.4v37.6z" fill="#eee"/><path d="M278 113.203c0-5.2-.4-5.6-5.6-5.6 4.4.401 5.6 1.6 5.6 5.6z" fill="#ffcdd2"/><path d="M341.6 171.603h-59.2v-58c0-6.4-3.2-10.4-9.6-10.4h-37.2c-6.8 0-13.6 4.4-13.6 10.4v58h-55.2c-6.8 0-13.6 4.4-13.6 10.4v37.6c0 6.4 7.2 12.4 13.6 12.4H222v56c0 6.4 7.2 12.4 13.6 12.4h37.2c6.4 0 9.6-6 9.6-12.4v-56h59.2c6.4 0 9.2-5.6 9.2-12.4v-37.6c0-6.4-3.2-10.4-9.2-10.4z" fill="#e57373"/><path d="M145.2 468.803v2h2c-1.2 0-2-.799-2-2z" fill="#ffcdd2"/><path d="M326.4 453.603c-1.2 0-2-.4-2-1.6-1.2 0-2-.4-2-1.6v-41.2H181.2v41.2l-32.4 4v11.2h205.6v-12h-28z" fill="#78909c"/><circle cx="254" cy="382.404" r="6" fill="#ffcdd2"/><path d="M471.2 411.203H36.4c-20 0-36.4-16.8-36.4-37.2v-301.6c0-20 16.4-36.4 36.4-36.4h434.8c20 0 36.4 16.4 36.4 36.4v301.6c.4 20.401-16.4 37.2-36.4 37.2zM36.8 44.404c-15.6 0-28.4 12.8-28.4 28.4v301.6c0 15.6 13.2 29.2 28.4 29.2h434.8c15.6 0 28.4-13.2 28.4-29.2v-301.6c0-15.6-12.8-28.4-28.4-28.4H36.8z"/><path d="M500 362.803H4c-2.4 0-4-1.6-4-4s1.6-4 4-4h496c2.4 0 4 1.6 4 4s-2 4-4 4zM477.6 338.803H26c-2.4 0-4-1.6-4-4v-270c0-2.4 1.6-4 4-4h405.2c2.4 0 4 1.6 4 4s-1.6 4-4 4H30v262h443.6v-262h-14c-2.4 0-4-1.6-4-4s1.6-4 4-4h18c2.4 0 4 1.6 4 4v270c0 2-1.6 4-4 4zM179.6 453.603c-2.4 0-4-1.6-4-4v-40.4c0-2.4 1.6-4 4-4s4 1.6 4 4v40.4c0 2.401-2 4-4 4zM324.4 453.603c-2.4 0-4-1.6-4-4v-40.4c0-2.4 1.6-4 4-4s4 1.6 4 4v40.4c0 2.401-1.6 4-4 4z"/><path d="M356.8 471.603H147.2c-2.4 0-4-1.6-4-4v-16c0-2.4 1.6-4 4-4h143.2c2.4 0 4 1.6 4 4s-1.6 4-4 4H151.2v8h201.6v-8h-26.4c-2.4 0-4-1.6-4-4s1.6-4 4-4h30.4c2.4 0 4 1.6 4 4v16c0 2.401-1.6 4-4 4zM254 394.404c-6.8 0-12-5.6-12-12 0-6.8 5.6-12 12-12 6.8 0 12 5.6 12 12 0 6.399-5.6 12-12 12zm0-16.4c-2.4 0-4 2-4 4 0 2.4 2 4 4 4s4-2 4-4-2-4-4-4zM273.6 303.603H234c-7.6 0-12.8-5.6-12.8-13.6v-57.6h-57.6c-8 0-13.6-5.2-13.6-12.8v-40c0-7.6 5.6-12.8 13.6-12.8h57.6v-57.6c0-8 5.2-13.6 12.8-13.6h39.6c7.6 0 13.2 5.6 13.2 13.6v57.6h57.6c3.6 0 7.2 1.2 9.6 3.6 2.4 2.4 4 5.6 4 9.6v40c0 7.6-5.6 12.8-13.6 12.8h-57.6v57.6c0 7.601-5.2 13.2-13.2 13.2zm-110-128.8c-2 0-5.6.8-5.6 4.8v40c0 4 2.8 4.8 5.6 4.8h61.6c2.4 0 4 1.6 4 4v61.6c0 1.6.4 5.6 4.8 5.6h39.6c4.4 0 5.2-4 5.2-5.6v-61.6c0-2.4 1.6-4 4-4h61.6c2.4 0 5.6-.8 5.6-4.8v-40c0-1.6-.4-2.8-1.2-3.6-.8-.8-2.4-1.2-4-1.2h-61.6c-2.4 0-4-1.6-4-4v-61.6c0-1.6-.4-5.6-5.2-5.6h-39.6c-4.4 0-4.8 4-4.8 5.6v61.6c0 2.4-1.6 4-4 4h-62z"/></svg>