<svg xmlns="http://www.w3.org/2000/svg" viewBox="0 0 503.467 503.467"><g fill="#aab1ba"><path d="M345.6 72.533v34.133h-34.133V72.533c0-18.773-15.36-34.133-34.133-34.133h-51.2C207.36 38.4 192 53.76 192 72.533v34.133h-34.133V72.533c0-34.987 32.427-68.267 68.267-68.267h51.2c35.839.001 68.266 32.427 68.266 68.267M106.667 209.067v42.667c0 4.267-4.267 8.533-8.533 8.533H81.067c-4.267 0-8.533-4.267-8.533-8.533V166.4c0-4.267 4.267-8.533 8.533-8.533h17.067c4.267 0 8.533 4.267 8.533 8.533v42.667zm324.266 0v42.667c0 4.267-3.413 8.533-8.533 8.533h-17.067c-5.12 0-8.533-4.267-8.533-8.533V166.4c0-4.267 3.413-8.533 8.533-8.533H422.4c5.12 0 8.533 4.267 8.533 8.533v42.667z"/></g><path d="M482.133 209.067h-51.2V166.4c0-4.267-3.413-8.533-8.533-8.533h-17.067c-5.12 0-8.533 4.267-8.533 8.533v42.667H106.667V166.4c0-4.267-4.267-8.533-8.533-8.533H81.067c-4.267 0-8.533 4.267-8.533 8.533v42.667h-51.2c-10.24 0-17.067-6.827-17.067-17.067v-51.2c0-18.773 15.36-34.133 34.133-34.133h426.667c18.773 0 34.133 15.36 34.133 34.133V192c0 10.24-7.68 17.067-17.067 17.067zm0 256c0 18.773-15.36 34.133-34.133 34.133H55.467c-18.773 0-34.133-15.36-34.133-34.133v-256h51.2v42.667c0 4.267 4.267 8.533 8.533 8.533h17.067c4.267 0 8.533-4.267 8.533-8.533v-42.667H396.8v42.667c0 4.267 3.413 8.533 8.533 8.533H422.4c5.12 0 8.533-4.267 8.533-8.533v-42.667h51.2v256z" fill="#ecf4f7"/><path fill="#ff7474" d="M328.533 328.533v51.2h-51.2v51.2h-51.2v-51.2h-51.2v-51.2h51.2v-51.2h51.2v51.2z"/><path d="M448 503.467H55.467c-21.333 0-38.4-17.067-38.4-38.4V213.333C6.827 211.627 0 203.093 0 192v-51.2c0-21.333 17.067-38.4 38.4-38.4h426.667c21.333 0 38.4 17.067 38.4 38.4V192c0 11.947-9.387 21.333-21.333 21.333h-51.2c-2.56 0-4.267-1.707-4.267-4.267V166.4c0-2.56-1.707-4.267-4.267-4.267h-17.067c-2.56 0-4.267 1.707-4.267 4.267v42.667c0 2.56-1.707 4.267-4.267 4.267H106.667c-2.56 0-4.267-1.707-4.267-4.267V166.4c0-2.56-1.707-4.267-4.267-4.267H81.067c-2.56 0-4.267 1.707-4.267 4.267v42.667c0 2.56-1.707 4.267-4.267 4.267H55.467c-2.56 0-4.267-1.707-4.267-4.267 0-2.56 1.707-4.267 4.267-4.267h12.8v-38.4c0-6.827 5.973-12.8 12.8-12.8h17.067c6.827 0 12.8 5.973 12.8 12.8v38.4h281.6v-38.4c0-6.827 5.973-12.8 12.8-12.8H422.4c6.827 0 12.8 5.973 12.8 12.8v38.4h46.933c7.68 0 12.8-5.12 12.8-12.8v-51.2c0-16.213-13.653-29.867-29.867-29.867H38.4c-16.213 0-29.867 13.653-29.867 29.867V192c0 7.68 5.12 12.8 12.8 12.8 2.56 0 4.267 1.707 4.267 4.267v256c0 16.213 13.653 29.867 29.867 29.867H448c16.213 0 29.867-13.653 29.867-29.867V243.2c0-2.56 1.707-4.267 4.267-4.267s4.267 1.707 4.267 4.267v221.867c-.001 21.333-17.068 38.4-38.401 38.4zM277.333 435.2h-51.2c-2.56 0-4.267-1.707-4.267-4.267V384h-46.933c-2.56 0-4.267-1.707-4.267-4.267v-51.2c0-2.56 1.707-4.267 4.267-4.267h46.933v-46.933c0-2.56 1.707-4.267 4.267-4.267h51.2c2.56 0 4.267 1.707 4.267 4.267v46.933h46.933c2.56 0 4.267 1.707 4.267 4.267v51.2c0 2.56-1.707 4.267-4.267 4.267H281.6v46.933c0 2.56-1.707 4.267-4.267 4.267zm-46.933-8.533h42.667v-46.933c0-2.56 1.707-4.267 4.267-4.267h46.933V332.8h-46.933c-2.56 0-4.267-1.707-4.267-4.267V281.6H230.4v46.933c0 2.56-1.707 4.267-4.267 4.267H179.2v42.667h46.933c2.56 0 4.267 1.707 4.267 4.267v46.933zm192-162.134h-17.067c-6.827 0-12.8-5.973-12.8-12.8V243.2c0-2.56 1.707-4.267 4.267-4.267s4.267 1.707 4.267 4.267v8.533c0 2.56 1.707 4.267 4.267 4.267H422.4c2.56 0 4.267-1.707 4.267-4.267V243.2c0-2.56 1.707-4.267 4.267-4.267s4.267 1.707 4.267 4.267v8.533c-.001 6.827-5.974 12.8-12.801 12.8zm-324.267 0H81.067c-6.827 0-12.8-5.973-12.8-12.8V243.2c0-2.56 1.707-4.267 4.267-4.267 2.56 0 4.267 1.707 4.267 4.267v8.533c0 2.56 1.707 4.267 4.267 4.267h17.067c2.56 0 4.267-1.707 4.267-4.267V243.2c0-2.56 1.707-4.267 4.267-4.267s4.267 1.707 4.267 4.267v8.533c-.003 6.827-5.976 12.8-12.803 12.8zM345.6 76.8c-2.56 0-4.267-1.707-4.267-4.267 0-33.28-30.72-64-64-64h-51.2c-33.28 0-64 30.72-64 64 0 2.56-1.707 4.267-4.267 4.267-2.56 0-4.267-1.707-4.267-4.267C153.6 34.987 188.587 0 226.133 0h51.2c37.547 0 72.533 34.987 72.533 72.533.001 2.56-1.706 4.267-4.266 4.267zm-34.133 0c-2.56 0-4.267-1.707-4.267-4.267 0-16.213-13.653-29.867-29.867-29.867h-51.2c-16.213 0-29.867 13.653-29.867 29.867 0 2.56-1.707 4.267-4.267 4.267s-4.267-1.707-4.267-4.267c0-21.333 17.067-38.4 38.4-38.4h51.2c21.333 0 38.4 17.067 38.4 38.4.001 2.56-1.705 4.267-4.265 4.267z" fill="#51565f"/></svg>