<svg xmlns="http://www.w3.org/2000/svg" viewBox="0 0 508.4 508.4"><path d="M502 157.4v-17.2c0-24-20.4-42-44.8-42H270.4c-1.2 0-2.4 0-3.6-1.2l-43.2-42.8H49.2c-24 0-43.6 17.6-43.6 42v60.4l496.4.8z" fill="#ff8a65"/><path d="M502 171.8v4c0-24.4-20.4-46-44.8-46H402L49.6 129C25.6 129 6 151.4 6 175.8v-3.6 240c0 24.4 19.6 46 43.6 46h407.6c24 0 44.8-22 44.8-46v-234c-.4-.8 0-5.6 0-6.4z" fill="#ffcc80"/><path d="M10 176.2c0-.4 0-.4 0 0z" fill="#2e7d32"/><path d="M349.6 263.4H292c-.8 0-2-2.4-2-4v-58c0-1.6-.8-6-9.6-6h-46c-2 0-8.4 0-8.4 6v58c0 1.6-1.2 4-2 4h-58.8c-3.6 0-7.2 2.4-7.2 7.6v45.6c0 4.4 2.8 10.8 7.2 10.8H226v58c0 4.4 3.6 10 8.4 10h46c5.2 0 9.6-6 9.6-10v-58H349.6c4.8 0 8.4-6.4 8.4-10.8v-46.4c0-4-3.2-6.8-8.4-6.8z" fill="#bf360c"/><path d="M457.2 460.2H53.6C24.8 460.2 0 435 0 406.2v-308c0-27.6 24-50 53.6-50h172c1.2 0 2 .4 2.8 1.2l43.2 42.8h186c28.8 0 50.8 21.6 50.8 50v263.6c-.4 30-23.2 54.4-51.2 54.4zM53.6 56.2C28.4 56.2 8 75 8 98.2v308c0 24 22 46 45.6 46h403.6c23.2 0 42.8-21.2 42.8-46V142.6c0-24-18.4-42-42.8-42H270.4c-1.2 0-2.4 0-3.6-1.2l-43.2-42.8h-170v-.4z"/><path d="M4 184.2c-2.4 0-4-1.6-4-4 0-28 24.4-52 53.6-52H402c2.4 0 4 1.6 4 4s-1.6 4-4 4H53.6c-24.8 0-45.6 20-45.6 44 0 2-1.6 4-4 4zM504 181.8c-2.4 0-4-1.6-4-4 0-24.8-18.8-44-42.8-44-2.4 0-4-1.6-4-4s1.6-4 4-4c28.4 0 50.8 22.8 50.8 52 0 2.4-1.6 4-4 4zM278 401h-40.4c-7.6 0-13.2-5.6-13.2-13.6v-59.2h-59.2c-8 0-13.6-5.2-13.6-12.8v-40.8c0-7.6 5.6-13.2 13.6-13.2h59.2v-59.2c0-8 5.6-13.6 13.2-13.6H278c8 0 13.2 5.6 13.2 13.6v59.2H350c8 0 13.6 5.2 13.6 13.2v40.8c0 7.6-5.6 12.8-13.6 12.8h-58.8v59.2c0 8-5.2 13.6-13.2 13.6zM165.6 269.8c-1.6 0-5.6.4-5.6 5.2v40.8c0 4 3.2 4.8 5.6 4.8h63.2c2.4 0 4 1.6 4 4v63.2c0 1.6.4 5.6 5.2 5.6h40.4c4.8 0 5.2-4 5.2-5.6v-63.2c0-2.4 1.6-4 4-4h62.8c2.4 0 5.6-.8 5.6-4.8V275c0-4.4-3.6-5.2-5.6-5.2h-62.8c-2.4 0-4-1.6-4-4v-63.2c0-1.6-.4-5.6-5.2-5.6H238c-4.8 0-5.2 4-5.2 5.6v63.2c0 2.4-1.6 4-4 4h-63.2z"/></svg>