<svg xmlns="http://www.w3.org/2000/svg" viewBox="0 0 508 508"><path fill="#616161" d="M28 454h148v28H28z"/><path d="M336 450h144V130H323.6v12c0 6.8-5.2 12-12 12h-24.4c-6.4 0-11.6-4.8-11.6-11.6V130h-40.4v12c0 6.8-5.2 12-12 12h-24.4c-6.4 0-11.6-4.8-11.6-11.6V130h-160v320H336z" fill="#b2dfdb"/><path fill="#616161" d="M332 450h148v32H332z"/><g fill="#eee"><path d="M90 176h56v56H90zM178 176h60v60h-60zM270 174h62v62h-62zM366 176h56v56h-56zM90 268h56v56H90zM178 268h60v60h-60zM274 268h56v56h-56zM366 268h56v56h-56zM90 360h56v56H90zM366 360h56v56h-56z"/></g><path d="M319.6 122.4l-.4-94.4c0-2-1.6-2-4-2h-28c-2.4 0-7.6-1.6-7.6.4v32c0 2.4 2.4 7.6 0 7.6h-44s-4-3.6-4-5.6l-.4-31.2c0-2-2-3.2-4-3.2h-28c-2.4 0-7.6-1.6-7.6.4V146c0 2 5.2 3.6 7.6 3.6h28.4c2 0 4.4-5.6 4.4-7.6v-36c0-1.2 2-.4 2.8-1.2.8-.8-.4.4.8.4H280c2.4 0 0 0 0 0v40c0 2 5.2 3.6 7.6 3.6H316c2 0 4-3.6 4-6l-.4-20.4z" fill="#e57373"/><path fill="#78909c" d="M328 362H180v120h148v-31.6z"/><path d="M276 132h-40c-2.4 0-4-1.6-4-4s1.6-4 4-4h40c2.4 0 4 1.6 4 4s-1.6 4-4 4z"/><path d="M482 488H26c-2.4 0-4-1.6-4-4V128c0-2.4 1.6-4 4-4h162c2.4 0 4 1.6 4 4s-1.6 4-4 4H30v348h448V132H324c-2.4 0-4-1.6-4-4s1.6-4 4-4h158c2.4 0 4 1.6 4 4v356c0 2.4-1.6 4-4 4z"/><path d="M146 240H86c-2.4 0-4-1.6-4-4v-60c0-2.4 1.6-4 4-4h60c2.4 0 4 1.6 4 4v60c0 2.4-1.6 4-4 4zm-56-8h52v-52H90v52zM238 240h-60c-2.4 0-4-1.6-4-4v-60c0-2.4 1.6-4 4-4h60c2.4 0 4 1.6 4 4v60c0 2.4-1.6 4-4 4zm-56-8h52v-52h-52v52zM330 240h-60c-2.4 0-4-1.6-4-4v-60c0-2.4 1.6-4 4-4h60c2.4 0 4 1.6 4 4v60c0 2.4-1.6 4-4 4zm-56-8h52v-52h-52v52zM422 240h-60c-2.4 0-4-1.6-4-4v-60c0-2.4 1.6-4 4-4h60c2.4 0 4 1.6 4 4v60c0 2.4-1.6 4-4 4zm-56-8h52v-52h-52v52zM146 332H86c-2.4 0-4-1.6-4-4v-60c0-2.4 1.6-4 4-4h60c2.4 0 4 1.6 4 4v60c0 2.4-1.6 4-4 4zm-56-8h52v-52H90v52zM238 332h-60c-2.4 0-4-1.6-4-4v-60c0-2.4 1.6-4 4-4h60c2.4 0 4 1.6 4 4v60c0 2.4-1.6 4-4 4zm-56-8h52v-52h-52v52zM330 332h-60c-2.4 0-4-1.6-4-4v-60c0-2.4 1.6-4 4-4h60c2.4 0 4 1.6 4 4v60c0 2.4-1.6 4-4 4zm-56-8h52v-52h-52v52zM422 332h-60c-2.4 0-4-1.6-4-4v-60c0-2.4 1.6-4 4-4h60c2.4 0 4 1.6 4 4v60c0 2.4-1.6 4-4 4zm-56-8h52v-52h-52v52zM146 424H86c-2.4 0-4-1.6-4-4v-60c0-2.4 1.6-4 4-4h60c2.4 0 4 1.6 4 4v60c0 2.4-1.6 4-4 4zm-56-8h52v-52H90v52zM422 424h-60c-2.4 0-4-1.6-4-4v-60c0-2.4 1.6-4 4-4h60c2.4 0 4 1.6 4 4v60c0 2.4-1.6 4-4 4zm-56-8h52v-52h-52v52zM176 456H28c-2.4 0-4-1.6-4-4s1.6-4 4-4h148c2.4 0 4 1.6 4 4s-1.6 4-4 4zM480 456h-12c-2.4 0-4-1.6-4-4s1.6-4 4-4h12c2.4 0 4 1.6 4 4s-1.6 4-4 4zM436 456H332c-2.4 0-4-1.6-4-4s1.6-4 4-4h104c2.4 0 4 1.6 4 4s-1.6 4-4 4zM254 378c-2.4 0-4-1.6-4-4v-12c0-2.4 1.6-4 4-4s4 1.6 4 4v12c0 2.4-1.6 4-4 4zM254 482c-2.4 0-4-1.6-4-4v-72c0-2.4 1.6-4 4-4s4 1.6 4 4v72c0 2.4-1.6 4-4 4z"/><path d="M504 488H4c-2.4 0-4-1.6-4-4s1.6-4 4-4h500c2.4 0 4 1.6 4 4s-1.6 4-4 4zM315.6 156H284c-3.6 0-10 0-10-8.4V112h-36.4v34.8c0 6.8-2.8 9.2-9.2 9.2h-32.8c-6.4 0-9.6-3.6-9.6-10.4V30c0-2.8 1.2-10 11.2-10h29.6c8 0 9.2 4.8 9.2 10v32h38V30c0-2.8 1.2-10 11.2-10h31.2c8 0 9.2 4.8 9.2 9.6l.4 115.6c-.4 9.6-7.2 10.8-10.4 10.8zm-33.6-8h33.6c1.6 0 2 0 2-2.8l-.4-115.6V28h-32.4c-3.2 0-3.2.4-3.2 2v36c0 2.4-1.6 4-4 4h-46c-.8 0-2-.4-2.8-1.2s-1.2-1.6-1.2-2.8V30v-2h-30.8c-3.2 0-3.2.4-3.2 2v115.6c0 1.6 0 2 .4 2.4h35.6v-40c0-1.2.4-2 1.2-2.8s1.6-1.2 2.8-1.2H278c2.4 0 4 1.6 4 4v40z"/><path d="M330 488H178c-2.4 0-4-1.6-4-4V360c0-2.4 1.6-4 4-4h152c2.4 0 4 1.6 4 4v124c0 2.4-1.6 4-4 4zm-148-8h144V364H182v116z"/></svg>