<svg xmlns="http://www.w3.org/2000/svg" viewBox="0 0 508.016 508.016"><g fill="#bcaaa4"><path d="M119.6 347.633c-14.4 0-25.6 11.6-25.6 25.6 0 14.4 11.6 25.6 25.6 25.6s26-11.6 26-25.6c-.4-14-12-25.6-26-25.6zM453.6 347.633c-11.6 0-20 7.6-25.2 22v7.6c5.2 14.8 13.6 22 24.8 22 14 0 25.6-11.6 25.6-25.6.4-14.4-11.2-26-25.2-26z"/></g><path d="M150.4 366.033v13.2h272v4.8c0-2-.4-4-.4-6s.4-4 .4-6v-6h-272z" fill="#e0e0e0"/><path d="M421.6 377.233v-7.2c0 1.2-.4 2.4-.4 3.6 0 1.201 0 2.4.4 3.6z" fill="#2e7d32"/><path d="M492.4 168.033H80l-56.8-56.4c-3.6-3.6-10-3.6-14 .4-2 2-2.8 4.4-2.8 7.2s1.2 5.2 2.8 7.2l60.4 60c1.6 1.6 4 2.4 7.2 2.4h416c5.6 0 10-4.4 10-10-.4-5.999-4.8-10.8-10.4-10.8z" fill="#b2dfdb"/><path fill="#795548" d="M82.4 194.033h408v12h-408z"/><g fill="#eee"><path d="M118.8 369.233c-2 .4-3.6 2-3.6 4 0 2.4 2 4.4 4.4 4.4 1.2 0 2.4-.4 3.2-1.2.8-.8 1.2-1.6 1.2-2.8-.4-2.4-3.6-3.6-5.2-4.4zM453.2 377.633c1.2 0 2.4-.4 3.2-1.6.4-.4.8-1.2.8-2.4-.4-3.2-3.6-4.4-4.8-4.4-2 .4-4 2-4 4 .4 2.8 2.4 4.4 4.8 4.4z"/></g><path d="M119.6 404.834c-17.6 0-31.6-14.4-31.6-31.6 0-17.6 14.4-31.6 31.6-31.6 17.6 0 31.6 14.4 31.6 31.6 0 17.6-14 31.6-31.6 31.6zm0-55.201c-13.2 0-23.6 10.8-23.6 23.6 0 13.2 10.8 23.6 23.6 23.6s23.6-10.8 23.6-23.6c0-13.2-10.4-23.6-23.6-23.6zM453.2 404.834c-17.6 0-31.6-14.4-31.6-31.6 0-17.6 14.4-31.6 31.6-31.6 17.6 0 31.6 14.4 31.6 31.6 0 17.6-14.4 31.6-31.6 31.6zm0-55.201c-13.2 0-23.6 10.8-23.6 23.6s10.8 23.6 23.6 23.6 23.6-10.8 23.6-23.6-10.8-23.6-23.6-23.6z"/><path d="M426.4 368.033h-276c-2.4 0-4-1.6-4-4s1.6-4 4-4h276c2.4 0 4 1.6 4 4s-1.6 4-4 4zM426.4 384.033h-276c-2.4 0-4-1.6-4-4s1.6-4 4-4h276c2.4 0 4 1.6 4 4s-1.6 4-4 4zM140.8 359.233c-1.6 0-2.8-.8-3.6-2.4-.8-2 0-4.4 2-5.2l307.2-146c2-.8 4.4 0 5.2 2 .8 2 0 4.4-2 5.2l-307.2 146c-.4.001-.8.4-1.6.4z"/><path d="M430.8 358.834c-.4 0-1.2 0-1.6-.4l-306-145.2c-2-.8-2.8-3.2-2-5.2s3.2-2.8 5.2-2l306 145.2c2 .8 2.8 3.2 2 5.2-.4 1.599-2 2.4-3.6 2.4zM492.4 196.033h-416c-3.6 0-7.6-2-11.2-5.2l-60.4-60.8c-2.8-2.8-4.8-7.2-4.8-11.2 0-4.4 1.6-8.4 4.8-11.2 6-6 16-6 22.4.4l55.6 56H492c8.8 0 16 7.2 16 16 .4 9.2-6.8 16-15.6 16zM16 111.233c-2 0-3.6.8-5.2 2-1.6 1.6-2.4 3.6-2.4 5.6s.8 4 2.4 5.6l60.4 60.8c2 2 4 3.2 5.6 3.2h416c4.4 0 8-3.6 8-8s-3.6-8-8-8H82c-1.2 0-2-.4-2.8-1.2l-56.8-57.2c-2.4-2-4.4-2.8-6.4-2.8z"/><path d="M492.4 212.033h-412c-2.4 0-4-1.6-4-4v-16c0-2.4 1.6-4 4-4h412c2.4 0 4 1.6 4 4v16c0 2.401-1.6 4-4 4zm-408-8h404v-8h-404v8zM119.6 385.233c-6.8 0-12-5.6-12-12 0-6.8 5.6-12 12-12 2.4 0 4 1.6 4 4s-1.6 4-4 4-4 2-4 4 2 4 4 4c2.4 0 4-2 4-4 0-2.4 1.6-4 4-4s4 1.6 4 4c0 6.8-5.2 12-12 12zM453.2 385.233c-6.8 0-12-5.6-12-12 0-6.8 5.6-12 12-12 2.4 0 4 1.6 4 4s-1.6 4-4 4-4 2-4 4 2 4 4 4 4-2 4-4c0-2.4 1.6-4 4-4s4 1.6 4 4c0 6.8-5.6 12-12 12z"/></svg>