<svg xmlns="http://www.w3.org/2000/svg" viewBox="0 0 503.467 503.467"><path d="M192 89.6h-85.334V21.333c0-9.387 7.68-17.067 17.067-17.067h204.8c9.387 0 17.067 7.68 17.067 17.067V89.6H192zm221.867 136.533v136.533l-.853 1.707c-5.12-1.707-11.093-1.707-16.213-1.707-37.547 0-68.267 30.72-68.267 68.267H38.4v-204.8h375.467z" fill="#ecf4f7"/><path d="M413.867 183.467v42.667H38.4v-42.667c0-18.773 15.36-35.84 34.133-42.667l51.2-17.067V89.6h204.8v34.133l51.2 17.067c19.627 6.827 34.134 23.893 34.134 42.667zM396.8 499.2H72.533c-18.773 0-34.133-15.36-34.133-34.133v-34.133h290.133c0 18.773 7.68 35.84 19.627 48.64 12.8 11.946 29.867 19.626 48.64 19.626z" fill="#aab1ba"/><g fill="#80d6fa"><path d="M445.44 382.293c11.947 11.947 19.627 29.013 19.627 48.64 0 37.547-30.72 68.267-68.267 68.267-18.773 0-35.84-7.68-48.64-19.627l97.28-97.28z"/><path d="M445.44 382.293l-96.427 96.427c-11.947-11.947-19.627-29.013-19.627-48.64 0-37.547 30.72-68.267 68.267-68.267 5.973 0 11.093.853 16.213 1.707 11.947 4.267 23.041 10.24 31.574 18.773"/></g><path fill="#ff7474" d="M277.333 311.467V345.6H243.2v34.133h-34.133V345.6h-34.134v-34.133h34.134v-34.134H243.2v34.134z"/><path d="M396.8 503.467c-19.627 0-37.547-7.68-51.2-20.48h-.853c-.853 0 0 0 0-.853-12.8-12.8-20.48-30.72-20.48-51.2 0-40.107 32.427-72.533 72.533-72.533 19.627 0 37.547 7.68 51.2 20.48h.853c.853 0 0 0 0 .853 12.8 12.8 20.48 30.72 20.48 51.2 0 40.106-32.426 72.533-72.533 72.533zm-41.813-24.747c11.093 10.24 25.6 16.213 41.813 16.213 34.987 0 64-29.013 64-64 0-16.213-5.973-30.72-16.213-41.813l-89.6 89.6zM396.8 366.933c-34.987 0-64 29.013-64 64 0 16.213 5.973 30.72 16.213 41.813l90.453-90.453c-11.946-9.386-26.453-15.36-42.666-15.36zM320 503.467H72.533c-21.333 0-38.4-17.067-38.4-38.4v-281.6c0-19.627 14.507-38.4 36.693-46.933l51.2-17.067c2.56-.853 4.267.853 5.12 2.56.853 2.56-.853 4.267-2.56 5.12l-51.2 17.067c-17.92 6.827-31.573 23.04-31.573 38.4v38.4h366.933v-37.547c0-16.213-12.8-31.573-31.573-38.4L325.973 128c-1.707-.853-2.56-2.56-2.56-4.267V89.6c0-2.56 1.707-4.267 4.267-4.267h12.8v-64c0-6.827-5.973-12.8-12.8-12.8h-204.8c-6.827 0-12.8 5.973-12.8 12.8v64h25.6V55.467c0-2.56 1.707-4.267 4.267-4.267 2.56 0 4.267 1.707 4.267 4.267v29.867h42.667V55.467c0-2.56 1.707-4.267 4.267-4.267s4.267 1.707 4.267 4.267v29.867h42.667V55.467c0-2.56 1.707-4.267 4.267-4.267 2.56 0 4.267 1.707 4.267 4.267v29.867h42.667V55.467c0-2.56 1.707-4.267 4.267-4.267s4.267 1.707 4.267 4.267V89.6c0 2.56-1.707 4.267-4.267 4.267H105.813c-2.56 0-4.267-1.707-4.267-4.267V21.333C101.547 9.387 110.933 0 122.88 0h204.8c11.947 0 21.333 9.387 21.333 21.333V89.6c0 2.56-1.707 4.267-4.267 4.267h-12.8v26.453l48.64 16.213c22.187 7.68 36.693 26.453 36.693 46.933v147.627c0 2.56-1.707 4.267-4.267 4.267s-4.267-1.707-4.267-4.267V230.4H41.813v196.267h251.733c2.56 0 4.267 1.707 4.267 4.267 0 2.56-1.707 4.267-4.267 4.267H41.813v29.867c0 16.213 13.653 29.867 29.867 29.867h247.467c2.56 0 4.267 1.707 4.267 4.267-.001 2.558-.854 4.265-3.414 4.265zM243.2 384h-34.133c-2.56 0-4.267-1.707-4.267-4.267v-29.867h-29.867c-2.56 0-4.267-1.707-4.267-4.267v-34.133c0-2.56 1.707-4.267 4.267-4.267H204.8v-29.867c0-2.56 1.707-4.267 4.267-4.267H243.2c2.56 0 4.267 1.707 4.267 4.267V307.2h29.867c2.56 0 4.267 1.707 4.267 4.267V345.6c0 2.56-1.707 4.267-4.267 4.267h-29.867v29.867c0 2.559-1.707 4.266-4.267 4.266zm-29.867-8.533h25.6V345.6c0-2.56 1.707-4.267 4.267-4.267h29.867v-25.6H243.2c-2.56 0-4.267-1.707-4.267-4.267V281.6h-25.6v29.867c0 2.56-1.707 4.267-4.267 4.267H179.2v25.6h29.867c2.56 0 4.267 1.707 4.267 4.267v29.866z" fill="#51565f"/></svg>