<svg xmlns="http://www.w3.org/2000/svg" viewBox="0 0 504.014 504.014"><path d="M499.52 499.313H380.053l17.067-68.267c85.333 17.067 102.4 68.267 102.4 68.267zm-392.533-68.266l17.067 68.267H4.587c0-.001 17.066-51.201 102.4-68.267z" fill="#ecf4f7"/><path d="M432.107 328.647s25.6 51.2-17.067 51.2H252.053c42.667 0 85.333-51.2 93.867-68.267 3.413-5.973 8.533-18.773 13.653-34.133 9.387-27.307 20.48-63.147 20.48-85.333V157.98h34.133v59.733c.001 76.8 17.921 110.934 17.921 110.934zm-180.054 51.2H89.067c-42.667 0-17.067-51.2-17.067-51.2s17.92-42.667 17.92-110.933V157.98h34.133v34.133c0 22.187 10.24 58.027 20.48 85.333 5.12 15.36 11.093 28.16 13.653 34.133 8.534 17.068 51.201 68.268 93.867 68.268z" fill="#ae938d"/><path d="M414.187 72.647v85.333H89.92V72.647c0-39.253 28.16-68.267 68.267-68.267h196.267c39.253 0 59.733 29.867 59.733 68.267zm-54.614 204.8c-5.12 15.36-11.093 28.16-13.653 34.133-8.533 17.067-51.2 68.267-93.867 68.267s-85.333-51.2-93.867-68.267c-3.413-5.973-8.533-18.773-13.653-34.133 0 0 64.853 0 107.52-17.067 42.667 17.067 107.52 17.067 107.52 17.067z" fill="#ecf4f7"/><path d="M397.12 431.047l-17.067 68.267h-256l-17.067-68.267 68.267-17.067s34.133 51.2 76.8 51.2 76.8-51.2 76.8-51.2l68.267 17.067z" fill="#80d6fa"/><path d="M380.053 157.98v34.133c0 22.187-10.24 58.027-20.48 85.333 0 0-64.853 0-107.52-17.067-42.667 17.067-107.52 17.067-107.52 17.067-9.387-27.307-20.48-63.147-20.48-85.333V157.98h256z" fill="#ffd0a1"/><path d="M380.053 503.58h-256c-1.707 0-3.413-1.707-4.267-3.413l-16.213-64c-78.507 17.067-94.72 64-95.573 64.853-.853 2.56-3.413 3.413-5.12 2.56-2.56-.853-3.413-3.413-2.56-5.12.853-2.56 18.773-53.76 105.813-70.827 2.56-.853 4.267.853 5.12 3.413l16.213 64.853H376.64l16.213-64.853c.853-2.56 2.56-3.413 5.12-3.413 87.04 17.067 104.96 69.12 105.813 70.827.853 2.56-.853 4.267-2.56 5.12-2.56.853-4.267-.853-5.12-2.56 0-.853-17.067-47.787-95.573-64.853l-16.213 64c-.853 1.706-2.56 3.413-4.267 3.413zm-128-34.133c-39.253 0-70.827-40.107-78.507-50.347l-31.573 7.68c-2.56.853-4.267-.853-5.12-3.413-.853-2.56.853-4.267 3.413-5.12l34.133-8.533c1.707 0 3.413 0 4.267 1.707 0 .853 33.28 49.493 73.387 49.493s72.533-48.64 73.387-49.493c.853-1.707 2.56-2.56 4.267-1.707l34.133 8.533c2.56.853 3.413 2.56 3.413 5.12-.853 2.56-2.56 3.413-5.12 3.413l-31.573-7.68c-7.68 10.24-39.253 50.347-78.507 50.347zm162.987-85.334h-69.12c-2.56 0-4.267-1.707-4.267-4.267 0-2.56 1.707-4.267 4.267-4.267h69.12c8.533 0 14.507-2.56 17.92-6.827 6.827-10.24-.853-30.72-4.267-37.547-.853-1.707-18.773-35.84-18.773-112.64v-25.6c0-2.56 1.707-4.267 4.267-4.267 2.56 0 4.267 1.707 4.267 4.267v25.6c0 74.24 17.067 108.373 17.067 109.227.853.853 14.507 29.867 4.267 46.08-4.268 6.828-12.801 10.241-24.748 10.241zm-162.987 0c-46.933 0-90.453-55.467-97.28-70.827-7.68-16.213-34.987-85.333-34.987-121.173 0-2.56 1.707-4.267 4.267-4.267 2.56 0 4.267 1.707 4.267 4.267 0 20.48 9.387 54.613 18.773 81.067 12.8 0 66.56-2.56 103.253-17.067h3.413c36.693 14.507 89.6 16.213 103.253 17.067 9.387-26.453 18.773-60.587 18.773-81.067 0-2.56 1.707-4.267 4.267-4.267s4.267 1.707 4.267 4.267c0 35.84-26.453 104.96-34.987 121.173-6.825 15.361-50.345 70.827-97.279 70.827zm-101.546-102.4c4.267 12.8 8.533 23.04 11.947 28.16 9.387 17.92 50.347 65.707 90.453 65.707s81.067-47.787 90.453-65.707c2.56-5.12 6.827-15.36 11.947-28.16-17.067-.853-65.707-2.56-101.547-17.067-37.547 14.508-86.187 16.214-103.253 17.067zm7.68 102.4h-69.12c-11.947 0-20.48-3.413-24.747-11.093-10.24-16.213 3.413-45.227 4.267-46.08 0 0 17.92-42.667 17.92-109.227v-25.6c0-2.56 1.707-4.267 4.267-4.267s4.267 1.707 4.267 4.267v25.6c0 68.267-17.92 110.933-17.92 112.64-3.413 6.827-11.093 27.307-5.12 38.4 2.56 5.12 9.387 6.827 17.92 6.827h69.12c2.56 0 4.267 1.707 4.267 4.267s-2.561 4.266-5.121 4.266zm136.533-153.6c-2.56 0-4.267-1.707-4.267-4.267V214.3c-6.827 1.707-8.533 5.973-9.387 5.973-.853 1.707-3.413 2.56-5.973 1.707-1.707-.853-2.56-3.413-1.707-5.973 0-.853 5.973-11.093 20.48-11.093 14.507 0 20.48 10.24 20.48 11.093.853 1.707 0 4.267-1.707 5.973-1.707.853-4.267 0-5.973-1.707 0 0-2.56-4.267-9.387-5.973v11.947c1.708 2.56.001 4.266-2.559 4.266zm-85.333 0c-2.56 0-4.267-1.707-4.267-4.267V214.3c-6.827 1.707-8.533 5.973-9.387 5.973-.853 1.707-3.413 2.56-5.973 1.707-1.707-.853-2.56-3.413-1.707-5.973 0-.853 5.973-11.093 20.48-11.093 14.507 0 20.48 10.24 20.48 11.093.853 1.707 0 4.267-1.707 5.973-1.707.853-4.267 0-5.973-1.707 0 0-2.56-4.267-9.387-5.973v11.947c1.707 2.56.001 4.266-2.559 4.266zm204.8-68.266H89.92c-2.56 0-4.267-1.707-4.267-4.267V72.647c0-41.813 30.72-72.533 72.533-72.533h196.267c39.253 0 64 28.16 64 72.533v85.333c0 2.56-1.706 4.267-4.266 4.267zm-320-8.534H409.92V72.647c0-30.72-14.507-64-55.467-64H158.187c-36.693 0-64 27.307-64 64v81.066zm157.866-42.666c-2.56 0-4.267-1.707-4.267-4.267V85.447h-21.333c-2.56 0-4.267-1.707-4.267-4.267s1.707-4.267 4.267-4.267h21.333V55.58c0-2.56 1.707-4.267 4.267-4.267s4.267 1.707 4.267 4.267v21.333h21.333c2.56 0 4.267 1.707 4.267 4.267s-1.707 4.267-4.267 4.267H256.32v21.333c0 2.56-1.707 4.267-4.267 4.267z" fill="#51565f"/></svg>