<svg xmlns="http://www.w3.org/2000/svg" viewBox="0 0 507.7 507.7"><g fill="#42a5f5"><path d="M144.85 287.7c-42.4 20.8-77.6 52.8-102 93.6 5.6 9.2 12 18.4 18.8 26.8 4.4-10.4 8.8-20.8 13.6-30.4 19.2-38 42.8-68.4 69.6-90zM432.05 377.7c4.8 9.6 9.6 19.6 13.6 30 6.8-8.4 12.8-17.2 18.4-26.8-24.4-40.4-59.6-72.8-101.6-93.2 26.8 22 50.4 52.4 69.6 90z"/></g><path d="M436.05 404.5c-3.6-8-7.2-16-10.8-23.2-24-47.2-55.2-82.8-90-103.2-2-1.2-4-2.4-6-3.2-32.8 31.6-73.2 54.8-73.6 55.2-1.2.8-2.8.8-4 0-2-1.2-46-28.8-73.2-54.8-2 1.2-4 2-6 3.2-35.2 20.8-66 56-90 103.2-4 7.6-7.6 15.2-10.8 23.2-1.6 3.2-2.8 6.8-4.4 10.4 46 53.2 114.4 85.2 186.4 85.2 72.4 0 140.4-32 186.4-85.2-1.2-4-2.8-7.6-4-10.8z" fill="#b2dfdb"/><path d="M159.65 150.5c0 50.4 40.8 91.2 92.8 91.2s92.8-40.8 92.8-91.2v-48.8h-186v48.8h.4z" fill="#ffcc80"/><path d="M345.65 24.5c-62-22.4-128-22.4-186 0v72.4h186V24.5z" fill="#eee"/><path fill="#fbc02d" d="M301.65 377.7h80v48h-80z"/><path d="M253.65 507.7c-90 0-173.6-47.6-218.8-124.8-.8-1.2-.8-2.8 0-4 31.6-54 82.4-94.4 143.2-113.2 1.6-.4 2.8 0 4 .8 23.2 23.2 62.4 48.4 72 54.4 8.8-5.2 43.6-26.8 71.6-54.4 1.2-1.2 2.4-1.6 4-.8 60.4 18.8 111.2 58.8 143.2 113.2.8 1.2.8 2.8 0 4-45.6 77.2-129.2 124.8-219.2 124.8zM42.85 380.9c44 73.2 124.4 118.8 210.8 118.8s166.8-45.6 210.8-118.8c-30.4-50.8-78.4-88.4-135.2-106.8-32.8 31.6-73.2 55.2-73.6 55.2-1.2.8-2.8.8-4 0-2-1.2-46.4-29.2-73.6-55.2-56.8 18.4-104.8 56-135.2 106.8z"/><path d="M62.45 419.3c-.4 0-.8 0-1.6-.4-2-.8-3.2-3.2-2.4-5.2 4.8-12.8 10.4-24.8 16.4-36.4 26.8-52.4 62-90.8 102-111.2 2-1.2 4.4-.4 5.2 1.6 1.2 2 .4 4.4-1.6 5.2-38.4 19.6-72.4 56.8-98.4 108-5.6 11.2-11.2 23.2-16 35.6-.4 2-2 2.8-3.6 2.8zM444.85 419.3c-1.6 0-3.2-.8-3.6-2.4-4.8-12.4-10.4-24.4-16-35.6-26-50.8-60-88-98.4-108-2-1.2-2.8-3.6-1.6-5.2 1.2-2 3.6-2.8 5.2-1.6 40 20.4 75.2 58.8 102 111.2 6 11.6 11.2 24 16.4 36.4.8 2-.4 4.4-2.4 5.2h-1.6zM253.65 249.7c-54 0-98-44.4-98-99.2V97.7c0-2.4 1.6-4 4-4s4 1.6 4 4v52.8c0 51.2 39.6 91.2 90 91.2s90-40 90-91.2V97.7c0-2.4 1.6-4 4-4s4 1.6 4 4v52.8c0 54.8-44 99.2-98 99.2zM251.65 505.7c-2.4 0-4-1.6-4-4v-132c0-2.4 1.6-4 4-4s4 1.6 4 4v132c0 2.4-1.6 4-4 4zM251.65 341.7c-2.4 0-4-1.6-4-4v-12c0-2.4 1.6-4 4-4s4 1.6 4 4v12c0 2.4-1.6 4-4 4z"/><path d="M347.65 101.7c-2.4 0-4-1.6-4-4V24.1c-61.2-21.6-126.4-21.6-180 0v73.6c0 2.4-1.6 4-4 4s-4-1.6-4-4V21.3c0-1.6.8-3.2 2.4-3.6 56.8-23.6 126.4-23.6 190.8 0 1.6.4 2.8 2 2.8 3.6v76.4c0 2.4-1.6 4-4 4z"/><path d="M345.65 103.7h-184c-2.4 0-4-1.6-4-4s1.6-4 4-4h184c2.4 0 4 1.6 4 4s-1.6 4-4 4zM273.65 55.7h-44c-2.4 0-4-1.6-4-4s1.6-4 4-4h44c2.4 0 4 1.6 4 4s-1.6 4-4 4z"/><path d="M251.65 77.7c-2.4 0-4-1.6-4-4v-48c0-2.4 1.6-4 4-4s4 1.6 4 4v48c0 2.4-1.6 4-4 4zM380.45 432.1h-79.2c-4.4 0-8-3.6-8-8v-43.6c0-4.4 3.6-8 8-8h79.2c4.4 0 8 3.6 8 8v43.6c0 4.4-3.6 8-8 8zm0-51.6h-79.2v43.6h79.2v-43.6z"/><path d="M339.65 377.7c-2.4 0-4-1.6-4-4v-16c0-2.4 1.6-4 4-4s4 1.6 4 4v16c0 2.4-1.6 4-4 4zM353.65 399.7h-40c-2.4 0-4-1.6-4-4s1.6-4 4-4h40c2.4 0 4 1.6 4 4s-1.6 4-4 4zM369.65 415.7h-56c-2.4 0-4-1.6-4-4s1.6-4 4-4h56c2.4 0 4 1.6 4 4s-1.6 4-4 4z"/></svg>