<svg xmlns="http://www.w3.org/2000/svg" viewBox="0 0 503.467 503.467"><path d="M499.2 132.267c0 34.987-14.507 67.413-37.547 90.453L342.187 342.187 161.28 161.28 280.747 41.813c23.04-23.04 55.467-37.547 90.453-37.547 70.827.001 128 57.174 128 128.001" fill="#ff7474"/><path d="M342.187 342.187L223.573 460.8c-23.04 23.893-55.467 38.4-91.307 38.4-70.827 0-128-57.173-128-128 0-34.987 14.507-67.413 37.547-90.453L161.28 161.28l180.907 180.907z" fill="#80d6fa"/><path d="M132.267 503.467C59.733 503.467 0 443.733 0 371.2v-4.267c0-32.427 0-47.787 38.4-88.747 39.253-40.96 118.613-118.613 119.467-119.467 1.707-1.707 4.267-1.707 5.973 0l178.347 178.347L458.24 221.013c23.04-23.04 36.693-54.613 36.693-87.893 0-68.267-55.467-123.733-123.733-123.733-33.28 0-64 12.8-87.893 35.84L187.733 140.8c-1.707 1.707-4.267 1.707-5.973 0-1.707-1.707-1.707-4.267 0-5.973L277.333 38.4C302.08 13.653 335.36 0 371.2 0c72.533 0 132.267 59.733 132.267 132.267 0 34.987-13.653 68.267-38.4 93.867-.853 1.707-2.56 2.56-5.12 5.12L345.6 345.6c-.853.853-1.707.853-3.413.853-.853 0-2.56-.853-3.413-.853L160.427 167.253c-15.36 14.507-81.92 80.213-116.053 116.907C7.68 322.56 7.68 336.214 7.68 366.934v4.267c0 68.267 55.467 123.733 123.733 123.733 33.28 0 64.853-12.8 87.893-37.547l95.573-94.72c1.707-1.707 4.267-1.707 5.973 0 1.707 1.707 1.707 4.267 0 5.973l-94.72 94.72c-24.745 25.6-58.025 40.107-93.865 40.107zM59.733 401.92c-1.707 0-3.413-.853-4.267-2.56-3.413-8.533-5.12-17.92-5.12-28.16 0-9.387 1.707-17.92 4.267-27.307.853-2.56 3.413-3.413 5.12-2.56s3.413 3.413 2.56 5.12c-2.56 7.68-4.267 16.213-4.267 23.893 0 8.533 1.707 17.067 4.267 24.747.853 2.56 0 4.267-2.56 5.12 1.707 1.707.854 1.707 0 1.707zM448 136.533c-2.56 0-4.267-1.707-4.267-4.267 0-23.893-11.947-46.08-31.573-59.733-1.707-1.707-2.56-4.267-.853-5.973s4.267-2.56 5.973-.853c22.187 15.36 34.987 40.107 34.987 66.56 0 2.56-1.707 4.266-4.267 4.266z" fill="#51565f"/></svg>