<svg xmlns="http://www.w3.org/2000/svg" viewBox="0 0 508 508"><path d="M167.6 501.6H342c26 0 47.6-21.2 47.6-47.2V57.2c0-25.6-22-51.6-47.6-51.6H168c-26.4 0-48.8 25.6-48.8 51.2V454c-.8 26 22 47.6 48.4 47.6z" fill="#bcaaa4"/><g fill="#ffcdd2"><path d="M281.6 223.6c-1.2 0-2-.8-2-2v2h2zM135.6 433.6v2h2c-1.2 0-2-.8-2-2z"/></g><g fill="#eee"><path d="M359.6 79.6H138.4v352h228v-352h-6.8zM259.2 450.4c-1.2-.4-2.4-.4-3.6-.4-1.2 0-2.8 0-4 .4-9.6 2.4-15.6 12-13.2 21.6 2 8 9.2 13.6 17.6 13.6 1.2 0 2.8 0 4.4-.4 9.2-2.4 15.2-11.6 13.2-21.6-2-9.2-14.4-13.2-14.4-13.2z"/></g><path d="M222.4 180.8v40.8c0 1.2.4 2-.8 2h-36.8c-3.2 0-14.4 1.2-14.4 5.2V266c0 4 10.4 9.2 14.4 9.2h36.8c1.2 0 .8.8.8 2v36.4c0 4 6.8 13.6 10.8 13.6H274c3.6 0 4.4-9.6 4.4-13.6v-36c0-1.2 6-2 7.2-2h36.8c4 0 8-5.6 8-9.2v-37.2c0-4-4-5.2-8-5.2h-44.8.8V180.8c0-4-4.4-9.2-8.4-9.2h-36.8c-4 0-10.8 5.6-10.8 9.2z" fill="#e57373"/><path d="M167.6 507.6c-30 0-54.8-24.4-54.8-53.2V57.2c0-27.6 24-52.8 54.4-57.2h174.4c30.4 4.4 53.2 29.2 53.2 57.6l.4 397.2c0 29.2-24 53.2-53.2 53.2l-174.4-.4zm.4-500c-26.4 4-47.2 25.6-47.2 49.2V454c0 24.4 21.6 45.2 46.8 45.2H342c24.8 0 45.2-20.4 45.2-45.2l-.4-397.2c0-24-20.4-45.6-46.4-49.6L168 7.6z"/><path d="M368.4 437.6h-232c-2.4 0-4-1.6-4-4v-356c0-2.4 1.6-4 4-4h186c2.4 0 4 1.6 4 4s-1.6 4-4 4h-182v348h224v-348h-10c-2.4 0-4-1.6-4-4s1.6-4 4-4h14c2.4 0 4 1.6 4 4v356c0 2.4-1.6 4-4 4zM282.4 49.6h-56c-2.4 0-4-1.6-4-4s1.6-4 4-4h56c2.4 0 4 1.6 4 4s-1.6 4-4 4zM207.6 48c-1.2 0-2-.4-2.8-1.2-.8-.8-1.2-1.6-1.2-2.8 0-1.2.4-2 1.2-2.8 1.6-1.6 4-1.6 5.6 0 .8.8 1.2 1.6 1.2 2.8 0 1.2-.4 2-1.2 2.8-.4.8-1.6 1.2-2.8 1.2zM255.6 491.6c-4.4 0-8.8-1.2-12.4-3.6-5.6-3.2-9.2-8.8-10.8-14.8-1.6-6.4-.4-12.8 2.8-18 3.2-5.6 8.8-9.2 14.8-10.8 3.6-.8 7.2-.8 10.4 0 2 .4 3.6 2.4 3.2 4.8-.4 2-2.4 3.6-4.8 3.2-2.4-.4-4.8-.4-7.2 0-4 .8-7.6 3.6-10 7.2s-2.8 8-2 12 3.6 7.6 7.2 10c3.6 2.4 8 2.8 12 2s7.6-3.6 10-7.2 2.8-8 2-12c-.4-2 .8-4.4 2.8-4.8s4.4.8 4.8 2.8c1.6 6.4.4 12.8-2.8 18s-8.8 9.2-14.8 10.8c-1.2.4-3.2.4-5.2.4z"/><path d="M272.4 331.6h-41.2c-6 0-10.8-4.8-10.8-11.2v-41.6h-41.6c-6.4 0-10.8-4.4-10.8-10.4v-37.6c0-6 4.8-10.8 10.8-10.8h41.6v-41.6c0-6.4 4.4-11.2 10.8-11.2h41.2c6.4 0 10.8 4.8 10.8 11.2V220h41.6c6.4 0 11.2 4.4 11.2 10.8v37.6c0 6-4.4 10.4-11.2 10.4h-41.6v41.6c0 6.4-4.4 11.2-10.8 11.2zm-93.6-103.2c-2.8 0-2.8 2-2.8 2.8v37.6c0 .8 0 2.4 2.8 2.4h45.6c2.4 0 4 1.6 4 4v45.6c0 2 .8 3.2 2.8 3.2h41.2c2 0 2.8-1.2 2.8-3.2v-45.6c0-2.4 1.6-4 4-4h45.6c3.2 0 3.2-1.6 3.2-2.4v-37.6c0-.8 0-2.8-3.2-2.8h-45.6c-2.4 0-4-1.6-4-4v-45.6c0-2-.8-3.2-2.8-3.2h-41.2c-1.6 0-2.8 1.2-2.8 3.2v45.6c0 2.4-1.6 4-4 4h-45.6z"/></svg>