<svg xmlns="http://www.w3.org/2000/svg" viewBox="0 0 504.4 504.4"><path d="M258 295.2c14.8 0 26.4-7.2 28.4-23.2H230c1.6 16 13.2 23.2 28 23.2z" fill="#64b5f6"/><path d="M290.8 268.4c30 0 59.2-22.8 66.8-52.8 0-.4 24-148 24-148 2.8-16-.4-30.8-10-42-9.2-10.8-21.2-16.8-37.2-17.2 0 1.6 1.2 3.6 1.2 6 0 2-.8 4-1.6 5.6v.4c11.6.4 21.6 5.2 28.4 13.2 7.2 8.4 10 20 8 32L346.8 204c0 .8-1.2.8-2 .8H169.2c-.8 0-1.6.4-2-.8L143.6 65.2c-2-12.8.8-23.6 7.6-32 7.2-8.4 16-12.4 28-13.2V8c-16 .4-28 6.8-37.2 17.6-9.6 11.2-13.2 26-10.8 42 17.2 130.4 19.2 143.2 19.6 146 7.6 29.2 42 54.4 72.4 54.4h67.6v.4z" fill="#ffd54f"/><g fill="#ffcdd2"><path d="M317.2 503.6c-.8 0-1.6-.4-2-.4.4 0 1.2.4 2 .4zM335.6 504c-1.2 0-2.4 0-3.6.4 1.2-.4 2.4-.4 3.6-.4z"/></g><path d="M327.6 500.4c40.8 0 75.6-36.8 75.6-79.2 0-43.6-34.8-81.6-76-81.6h-59.6v12h59.6c35.2 0 63.6 30 63.6 67.2 0 35.2-28.4 64-63.6 64-35.6 0-63.6-26.4-63.6-61.2V300.4h-12V421.6c0 42 35.6 78.8 76 78.8z" fill="#ff8a65"/><g fill="#ffcdd2"><path d="M248.4 433.6v-.8c-.4 0 0 .4 0 .8zM247.6 428.4c-.4-2.4-.4-4.8-.4-7.2 0 2.4 0 4.8.4 7.2zM327.6 504.4c-2.4 0-4.8 0-6.8-.4 2 .4 4.4.4 6.8.4z"/></g><path fill="#ff7043" d="M152.4 339.6h95.2v12h-95.2z"/><path fill="#b2dfdb" d="M121.6 387.2l26.8-18v-41.6L121.6 304h-20.8v83.2z"/><g fill="#ffcdd2"><circle cx="192" cy="14.4" r="8"/><path d="M324 6.4c-4.4 0-8 3.6-8 8s3.6 8 8 8c2.8 0 4.8-1.2 6.4-3.2V10c-1.6-2.4-4-3.6-6.4-3.6z"/><path d="M331.6 14.4c0-1.6-.8-3.6-1.6-4.8v9.2c1.2-1.2 1.6-2.8 1.6-4.4z"/></g><path d="M327.6 504.4c-44.4 0-81.6-38-81.6-83.2V300c0-2.4 1.6-4 4-4s4 1.6 4 4v121.2c0 40.8 33.6 75.2 73.6 75.2s73.6-34.8 73.6-76c0-42.8-34-78.8-74-78.8h-55.6c-2.4 0-4-1.6-4-4s1.6-4 4-4h55.6c44.4 0 82 39.6 82 86.8 0 45.6-37.6 84-81.6 84z"/><path d="M327.6 486.8h-.4c-36 0-65.6-29.6-65.6-65.6V300c0-2.4 1.6-4 4-4s4 1.6 4 4v49.6h57.6c35.6 0 66 32 66 70.4-.4 36.4-30.4 66.8-65.6 66.8zm-58-129.2v63.6c0 31.6 26 57.6 57.6 57.6h.4c30.8 0 57.2-27.2 57.2-59.2 0-33.6-26.4-62.4-58-62.4h-57.2v.4zM247.6 341.6h-95.2c-2.4 0-4-1.6-4-4s1.6-4 4-4h95.2c2.4 0 4 1.6 4 4s-1.6 4-4 4zM247.6 357.6h-95.2c-2.4 0-4-1.6-4-4s1.6-4 4-4h95.2c2.4 0 4 1.6 4 4s-1.6 4-4 4zM291.6 274.4H228c-2.4 0-4-1.6-4-4s1.6-4 4-4h63.6c2.4 0 4 1.6 4 4s-2 4-4 4z"/><path d="M122.4 393.2H99.2c-2.4 0-4-1.6-4-4V302c0-2.4 1.6-4 4-4h23.2c.8 0 2 .4 2.8.8l28.4 24.8c.8.8 1.2 2 1.2 3.2v43.6c0 1.2-.8 2.4-1.6 3.2l-28.4 19.2c-1.2.4-1.6.4-2.4.4zm-19.6-8h18l25.6-17.2v-39.6l-26-22.8h-17.6v79.6zM258 302.4c-16.8 0-31.2-12-34-28-33.6-.4-69.2-26.8-77.2-58v-.4c-.4-4.4-19.6-146.8-19.6-146.8-2.8-17.6 1.2-34.4 12-46.8C150 9.6 165.6 2.8 183.6 2.8c2.4 0 4 1.6 4 4s-1.6 4-4 4c-15.2 0-28.8 6-38 16.8S132.8 52.8 135.2 68c16.4 121.6 19.2 142.8 19.6 146.8 7.2 27.6 40 52 70 52h2.8c2 0 4 1.6 4.4 3.6.8 14 12.4 24.4 26.4 24.4s25.6-10.4 26.4-24c0-.4 0-.8.4-1.2 1.2-2.4 2.8-2.8 4-2.8h2.8c29.2 0 57.2-22 64.8-51.2 0-.8 24-148 24-148 2.4-15.6-.8-29.6-10-40.4s-22.4-16.8-38-16.8c-2.4 0-4-1.6-4-4s1.6-4 4-4c17.6 0 33.2 6.8 44 19.6 10.4 12.4 14.8 28.8 12 46.8-20.4 125.6-23.6 145.2-24.4 148.4-8.4 32.4-39.2 56.8-72 57.2-3.2 16-17.2 28-34.4 28zm87.6-95.6H170c-2 0-3.6-1.6-4-3.2L142.4 65.2c-2-12.8.8-24.4 8.8-33.6 7.6-8.8 18.8-13.6 32-13.6 2.4 0 4 1.6 4 4s-1.6 4-4 4c-10.8 0-20 4-26 10.8-6 7.2-8.4 16.8-6.8 26.8l22.8 135.2H342l22.8-135.2c1.6-10.4-.4-18.8-6.8-26.4C352 30 342.8 26 332 26c-2.4 0-4-1.6-4-4s1.6-4 4-4c12.8 0 24.4 4.8 32 14 8 9.2 10.8 20.4 8.8 32.8l-23.6 138.4c0 2-1.6 3.6-3.6 3.6z"/><path d="M122.8 391.2c-2.4 0-4-1.6-4-4v-51.6c0-2.4 1.6-4 4-4s4 1.6 4 4v51.6c0 2.4-2 4-4 4zM172.4 206.8h-20c-2.4 0-4-1.6-4-4s1.6-4 4-4h20c2.4 0 4 1.6 4 4s-2 4-4 4zM358.8 206.8h-12c-2.4 0-4-1.6-4-4s1.6-4 4-4h12c2.4 0 4 1.6 4 4s-1.6 4-4 4zM192 28c-7.6 0-14-6.4-14-14s6.4-14 14-14 14 6.4 14 14-6.4 14-14 14zm0-19.6c-3.2 0-6 2.8-6 6s2.8 6 6 6 6-2.8 6-6-2.8-6-6-6zM324 28c-7.6 0-14-6.4-14-14s6.4-14 14-14 14 6.4 14 14-6.4 14-14 14zm0-19.6c-3.2 0-6 2.8-6 6s2.8 6 6 6 6-2.8 6-6-2.8-6-6-6z"/></svg>