<svg xmlns="http://www.w3.org/2000/svg" viewBox="0 0 508.8 508.8"><path d="M490.4 281.8L328 119.4c-13.6-13.6-39.6-24-59.6-24h-2.8l-127.2 6.8c-19.2.8-35.6 17.2-36.4 36.4l-6.8 127.6c-1.2 19.6 10 48.4 24 62.4L281.6 491c6.4 6.4 15.2 10 24.4 10s18-3.6 24.4-10l160.4-160.4c6.4-6.4 10-15.2 10-24.4-.4-9.2-4-18-10.4-24.4zm-324-115.2c-5.6 5.6-12.8 8.8-20.8 8.8s-15.2-3.2-20.8-8.8c-11.6-11.6-11.6-30 0-41.6 5.6-5.6 12.8-8.8 20.8-8.8s15.2 3.2 20.8 8.8c11.6 11.6 11.6 30 0 41.6zm226 173.6c5.2 5.2 5.2 14.4-.8 20L362 389.8c-2.8 2.8-6.8 4.4-10.4 4.4-3.6 0-6.8-1.2-9.6-4l-38-38-38 38c-2.4 2.4-6 4-9.6 4-4 0-7.6-1.6-10.4-4.4l-29.2-29.2c-2.8-2.8-4.4-6.4-4.8-10-.4-4 .8-8 3.6-10.4l38-38-38-38c-2.8-2.8-4-6-4-10 0-3.6 1.6-7.2 4.4-10l29.6-29.6c5.6-5.6 14.8-5.6 20-.8l38 38 38.4-38.4c5.2-5.2 14.4-4.8 20 .8l30 30c2.8 2.8 4.4 6.4 4.4 10 0 4-1.2 7.6-4 10L354 302.6l38.4 37.6z" fill="#e0e0e0"/><path d="M145.6 124.2c-5.6 0-11.2 2.4-15.2 6.4-8.4 8.4-8.4 22 0 30.4 4 4 9.6 6.4 15.2 6.4s11.2-2.4 15.2-6.4c8.4-8.4 8.4-22 0-30.4-4-4-9.6-6.4-15.2-6.4z" fill="#eee"/><path d="M356.8 219.8c-2.4-2.4-6.8-2.8-8.8-.8l-41.2 41.2c-1.6 1.6-4 1.6-5.6 0l-40.8-40.8c-.8-.8-2.4-1.6-4-1.6-2 0-3.6.8-4.8 2L222 249.4c-1.2 1.2-2 2.8-2 4.8 0 1.6.4 3.2 1.6 4l40.8 40.8c1.6 1.6 1.6 4 0 5.6l-40.8 40.8c-2 2-1.6 6.8 1.2 9.2l29.2 29.2c2.4 2.4 6.8 2.8 8.8.8l40.8-40.8c1.6-1.6 4-1.6 5.6 0l40.8 40.8c.8.8 2.4 1.6 4 1.6 2 0 3.6-.8 4.8-2l29.6-29.6c2.4-2.4 2.8-6.4.8-8.8L346.4 305c-.8-.8-1.2-1.6-1.2-2.8 0-1.2.4-2 1.2-2.8l41.2-41.2c2.4-2 2-6.4-.8-8.8l-30-29.6z" fill="#bf360c"/><path d="M306 508.6c-11.2 0-22-4.4-30-12.4L113.6 333.8c-15.6-15.6-27.2-46.4-26.4-68.4L94 137.8c1.2-23.2 20.8-42.8 44-44L265.6 87h3.2c22 0 50.4 11.6 65.2 26.4l162.4 162.4c8 8 12.4 18.4 12.4 30 0 11.2-4.4 22-12.4 30L336 496.2c-8.4 8-18.8 12.4-30 12.4zM268.8 95.8H266l-127.2 6.8c-19.2.8-35.6 17.2-36.4 36.4l-6.8 127.6c-1.2 19.6 10 48.4 24 62.4L282 491.4c6.4 6.4 15.2 10 24.4 10s17.6-3.6 24.4-10L491.2 331c6.4-6.4 10-15.2 10-24.4s-3.6-17.6-10-24.4L328.8 119.8c-14-13.6-40.4-24-60-24z"/><path d="M145.6 175.4c-8 0-15.2-3.2-20.8-8.8-11.6-11.6-11.6-30 0-41.6 5.6-5.6 12.8-8.8 20.8-8.8s15.2 3.2 20.8 8.8c5.6 5.6 8.8 12.8 8.8 20.8s-3.2 15.2-8.8 20.8c-5.6 5.6-12.8 8.8-20.8 8.8zm0-51.2c-5.6 0-11.2 2.4-15.2 6.4-8.4 8.4-8.4 22 0 30.4 4 4 9.6 6.4 15.2 6.4s11.2-2.4 15.2-6.4 6.4-9.6 6.4-15.2-2.4-11.2-6.4-15.2-9.6-6.4-15.2-6.4z"/><path d="M145.6 149.8c-.4 0-1.2 0-1.6-.4-4.4-2-111.6-48.4-129.6-66C5.2 74.2 0 62.2 0 49c0-12.8 5.2-25.2 14.4-34.4S35.6.2 48.8.2C61.6.2 74 5.4 83.2 14.6c7.6 7.6 21.2 32.4 40.4 73.2.8 2 0 4.4-2 5.2-2 .8-4.4 0-5.2-2C98 52.2 84 27 77.2 20.2c-7.6-7.6-18-12-28.8-12s-21.2 4.4-28.8 12-12 18-12 28.8 4.4 21.2 12 28.8c13.2 13.2 88.8 48 126.8 64.4 2 .8 2.8 3.2 2 5.2.4 1.6-1.2 2.4-2.8 2.4zM256.8 394.6h-.8c-3.6 0-7.2-1.6-10-4.4L216.8 361c-6-6-6.4-15.2-1.2-20.8l38-38-38-38c-5.2-5.2-5.2-14.4.8-20l29.6-29.6c2.8-2.8 6.8-4.4 10.8-4.4 3.6 0 6.8 1.2 9.6 4l38 38 38.4-38.4c2.8-2.8 6.4-4 10-4s7.2 1.6 10 4.4l30 30c5.6 5.6 6 14.8.8 20l-38.4 38.4 38 38c5.2 5.2 5.2 14.4-.8 20l-29.6 29.6c-2.8 2.8-6.4 4.4-10 4.4-4 .4-7.6-1.2-10-4l-38-38-38 38c-2.8 2.4-6.4 4-10 4zm0-176.8c-1.6 0-3.6.8-4.8 2l-29.6 29.6c-2.4 2.4-2.8 6.4-.8 8.8l40.8 40.8c.8.8 1.2 1.6 1.2 2.8s-.4 2-1.2 2.8l-40.8 40.8c-2 2-1.6 6.8 1.2 9.2l29.2 29.2c1.2 1.2 2.8 2 4.8 2 1.6 0 3.2-.4 4-1.6l40.8-40.8c1.6-1.6 4-1.6 5.6 0l40.8 40.8c2.4 2.4 6.4 2 8.8-.8l29.6-29.6c2.4-2.4 2.8-6.4.8-8.8l-40.8-40.8c-1.6-1.6-1.6-4 0-5.6l41.2-41.2c2.4-2.4 2-6-.8-8.8l-30-30c-1.2-1.2-2.8-2-4.8-2-1.6 0-3.2.4-4 1.6l-41.2 41.2c-1.6 1.6-4 1.6-5.6 0l-40.8-40.8c-.8 0-2.4-.8-3.6-.8z"/></svg>